<?xml version="1.0" standalone="no"?><!DOCTYPE svg PUBLIC "-//W3C//DTD SVG 1.1//EN" "http://www.w3.org/Graphics/SVG/1.1/DTD/svg11.dtd" ><svg xmlns="http://www.w3.org/2000/svg"><metadata></metadata><defs><font id="Founder:FZMeiHei-M07S	Regular" horiz-adv-x="256"><font-face font-family="FZMeiHei-M07S" font-weight="400" font-stretch="normal" units-per-em="256" panose-1="3 0 5 9 0 0 0 0 0 0" ascent="238" descent="-63" x-height="0" bbox="-6 -50 224 215" underline-thickness="12" underline-position="-51" unicode-range="U+0030-9f20" /><missing-glyph horiz-adv-x="256"  /><glyph glyph-name="" unicode="0" d="M71 -1 q-59 3 -61 94 q2 91 61 95 q59 -4 61 -95 q-2 -91 -61 -94 ZM106 93 q-1 68 -35 72 q-34 -4 -35 -72 q1 -69 35 -73 q34 4 35 73 Z" /><glyph glyph-name="" unicode="1" d="M30 185 l58 0 l0 -185 l-26 0 l0 164 l-32 0 l0 21 Z" /><glyph glyph-name="" unicode="2" d="M124 0 l-113 0 l0 23 q22 25 51 56 q41 39 36 58 q-2 26 -27 28 q-31 -1 -33 -35 l-26 0 q2 56 59 58 q50 -4 53 -51 q12 -28 -79 -113 l79 0 l0 -24 Z" /><glyph glyph-name="" unicode="3" d="M55 89 l0 22 q44 -3 42 29 q-1 24 -28 25 q-27 0 -29 -29 l-26 0 q1 51 58 52 q47 -4 51 -47 q-2 -37 -28 -40 l0 -1 q34 -7 35 -48 q-3 -50 -61 -53 q-59 1 -60 57 l26 0 q0 -36 34 -36 q32 1 35 31 q-1 37 -41 38 q-3 0 -8 0 Z" /><glyph glyph-name="" unicode="4" d="M79 64 l0 77 l-1 0 l-44 -77 l45 0 ZM8 40 l0 25 l70 120 l27 0 l0 -121 l23 0 l0 -24 l-23 0 l0 -40 l-26 0 l0 40 l-71 0 Z" /><glyph glyph-name="" unicode="5" d="M11 56 l26 0 q1 -34 31 -36 q36 0 35 45 q0 41 -32 41 q-21 0 -29 -19 l-27 6 l11 92 l94 0 l0 -23 l-71 0 l-7 -47 l1 0 q10 15 32 15 q51 -2 54 -66 q-2 -64 -62 -65 q-56 0 -56 57 Z" /><glyph glyph-name="" unicode="6" d="M127 136 l-23 0 q-4 30 -28 31 q-36 0 -38 -68 q10 22 40 23 q49 -4 53 -60 q-2 -62 -60 -63 q-58 1 -59 89 q0 100 64 100 q48 -2 51 -52 ZM74 99 q-29 -3 -32 -36 q1 -42 32 -43 q31 1 31 38 q-2 39 -31 41 Z" /><glyph glyph-name="" unicode="7" d="M8 162 l0 23 l116 0 l0 -20 l-56 -165 l-30 0 l58 162 l-88 0 Z" /><glyph glyph-name="" unicode="8" d="M41 102 q-23 10 -25 39 q2 44 57 47 q50 -3 53 -48 q0 -27 -23 -38 l0 -1 q31 -11 31 -47 q-3 -53 -64 -55 q-60 1 -61 58 q2 35 32 45 ZM71 89 q-33 -2 -35 -34 q3 -32 34 -35 q34 2 36 34 q-1 34 -35 35 ZM71 112 q26 1 27 27 q-2 23 -27 26 q-25 -3 -27 -26 q1 -26 27 -27 Z" /><glyph glyph-name="" unicode="9" d="M15 49 l23 0 q4 -31 31 -31 q34 2 37 72 q-9 -25 -42 -27 q-50 2 -52 68 q4 53 56 57 q61 -3 63 -90 q0 -100 -64 -99 q-49 1 -52 50 ZM69 87 q30 2 31 36 q-2 40 -30 42 q-32 0 -32 -37 q1 -40 31 -41 Z" /><glyph glyph-name="" unicode="a" d="M24 0 l-24 0 l50 185 l26 0 l53 -185 l-25 0 l-16 55 l-49 0 l-15 -55 ZM63 144 l-18 -66 l37 0 l-19 66 Z" /><glyph glyph-name="" unicode="b" d="M18 0 l0 185 l51 0 q54 -1 55 -49 q0 -32 -25 -39 q31 -6 33 -44 q-1 -52 -58 -53 l-56 0 ZM44 83 l0 -59 l30 0 q33 -1 32 30 q-2 28 -34 29 l-28 0 ZM44 162 l0 -55 l24 0 q29 2 30 27 q-1 27 -30 28 l-24 0 Z" /><glyph glyph-name="" unicode="c" d="M134 114 l-24 0 q-5 54 -37 53 q-37 -3 -38 -74 q2 -72 38 -75 q34 -2 37 52 l24 0 q-1 -70 -61 -71 q-62 3 -64 94 q2 91 64 95 q57 1 61 -74 Z" /><glyph glyph-name="" unicode="d" d="M18 0 l0 185 l55 0 q72 -1 74 -92 q-2 -92 -74 -93 l-55 0 ZM44 162 l0 -138 l25 0 q52 0 52 69 q0 69 -52 69 l-25 0 Z" /><glyph glyph-name="" unicode="e" d="M111 0 l-93 0 l0 185 l93 0 l0 -23 l-67 0 l0 -53 l67 0 l0 -24 l-67 0 l0 -61 l67 0 l0 -24 Z" /><glyph glyph-name="" unicode="f" d="M18 185 l88 0 l0 -23 l-62 0 l0 -53 l62 0 l0 -24 l-62 0 l0 -85 l-26 0 l0 185 Z" /><glyph glyph-name="" unicode="g" d="M142 124 l-27 0 q-6 43 -37 43 q-41 -2 -43 -74 q2 -73 44 -75 q41 -1 39 54 l-52 0 l0 23 l78 0 l0 -23 q-1 -72 -65 -73 q-67 2 -70 94 q3 92 69 95 q58 -4 64 -64 Z" /><glyph glyph-name="" unicode="h" d="M44 0 l-26 0 l0 185 l26 0 l0 -76 l68 0 l0 76 l26 0 l0 -185 l-26 0 l0 85 l-68 0 l0 -85 Z" /><glyph glyph-name="" unicode="i" d="M41 0 l-26 0 l0 185 l26 0 l0 -185 Z" /><glyph glyph-name="" unicode="j" d="M2 54 l26 0 q0 -37 22 -36 q22 1 22 30 l0 137 l26 0 l0 -137 q0 -49 -49 -49 q-46 0 -47 55 Z" /><glyph glyph-name="" unicode="k" d="M44 0 l-26 0 l0 185 l26 0 l0 -86 l1 0 l61 86 l29 0 l-51 -72 l58 -113 l-30 0 l-46 92 l-22 -32 l0 -60 Z" /><glyph glyph-name="" unicode="l" d="M110 0 l-92 0 l0 185 l26 0 l0 -161 l66 0 l0 -24 Z" /><glyph glyph-name="" unicode="m" d="M42 0 l-24 0 l0 185 l37 0 l38 -135 l1 0 l36 135 l37 0 l0 -185 l-25 0 l0 142 l-38 -142 l-21 0 l-40 142 l-1 0 l0 -142 Z" /><glyph glyph-name="" unicode="n" d="M44 0 l-25 0 l0 185 l27 0 l66 -132 l0 132 l25 0 l0 -185 l-24 0 l-68 137 l-1 0 l0 -137 Z" /><glyph glyph-name="" unicode="o" d="M78 188 q67 -3 69 -95 q-2 -92 -69 -94 q-66 2 -69 94 q3 92 69 95 ZM78 167 q-41 -2 -43 -74 q2 -73 43 -75 q41 2 43 75 q-2 72 -43 74 Z" /><glyph glyph-name="" unicode="p" d="M44 162 l0 -68 l27 0 q34 1 34 34 q0 34 -34 34 l-27 0 ZM44 0 l-26 0 l0 185 l58 0 q53 -3 55 -57 q-2 -54 -55 -57 l-32 0 l0 -71 Z" /><glyph glyph-name="" unicode="q" d="M151 21 l0 -21 q-9 -2 -16 -1 q-17 0 -26 6 q-13 -6 -31 -6 q-66 2 -69 94 q3 92 69 95 q67 -3 69 -95 q0 -45 -18 -70 q4 -3 10 -3 q6 0 12 1 ZM56 67 q24 0 51 -25 q2 -2 3 -3 q11 21 11 54 q-2 72 -43 74 q-41 -2 -43 -74 q0 -15 3 -28 q9 2 18 2 ZM78 18 q9 1 15 4 q-18 23 -38 22 q-4 1 -10 -2 q11 -24 33 -24 Z" /><glyph glyph-name="" unicode="r" d="M44 0 l-26 0 l0 185 l52 0 q58 -4 60 -54 q0 -50 -42 -56 l53 -75 l-31 0 l-64 95 l21 0 q36 2 37 31 q-1 35 -36 36 l-24 0 l0 -162 Z" /><glyph glyph-name="" unicode="s" d="M6 57 l26 0 q1 -39 32 -39 q31 0 31 32 q0 21 -37 34 q-49 18 -49 53 q3 47 53 51 q54 -1 56 -54 l-26 0 q-1 32 -29 33 q-25 -2 -27 -28 q0 -19 35 -31 q51 -17 51 -57 q-2 -50 -56 -52 q-59 0 -60 58 Z" /><glyph glyph-name="" unicode="t" d="M4 185 l106 0 l0 -23 l-40 0 l0 -162 l-26 0 l0 162 l-40 0 l0 23 Z" /><glyph glyph-name="" unicode="u" d="M102 185 l26 0 l0 -131 q-1 -54 -57 -55 q-56 1 -57 55 l0 131 l26 0 l0 -136 q1 -28 31 -29 q30 1 31 29 l0 136 Z" /><glyph glyph-name="" unicode="v" d="M64 39 l39 146 l25 0 l-52 -185 l-24 0 l-52 185 l25 0 l39 -146 Z" /><glyph glyph-name="" unicode="w" d="M94 185 l25 0 l33 -149 l33 149 l26 0 l-46 -185 l-25 0 l-33 147 l-1 0 l-33 -147 l-25 0 l-46 185 l26 0 l33 -149 l33 149 Z" /><glyph glyph-name="" unicode="x" d="M64 124 l28 61 l28 0 l-42 -86 l49 -99 l-27 0 l-36 72 l-36 -72 l-28 0 l49 99 l-43 86 l28 0 l30 -61 Z" /><glyph glyph-name="" unicode="y" d="M64 103 l36 82 l28 0 l-51 -110 l0 -75 l-26 0 l0 75 l-51 110 l27 0 l37 -82 Z" /><glyph glyph-name="" unicode="z" d="M4 22 l72 140 l-66 0 l0 23 l97 0 l0 -23 l-72 -138 l74 0 l0 -24 l-105 0 l0 22 Z" /><glyph glyph-name="" unicode="a" d="M88 56 l0 30 q-1 35 -26 36 q-29 -1 -29 -49 q0 -53 28 -52 q27 0 27 35 ZM113 143 l0 -143 l-21 0 l0 20 l-1 0 q-7 -22 -32 -21 q-50 0 -50 73 q2 72 50 74 q25 0 32 -26 l1 0 l0 23 l21 0 Z" /><glyph glyph-name="" unicode="b" d="M40 86 l0 -30 q0 -35 27 -35 q28 -1 28 52 q0 48 -29 49 q-25 -1 -26 -36 ZM15 0 l0 185 l25 0 l0 -55 l1 0 q9 15 28 16 q48 -2 50 -74 q0 -73 -50 -73 q-25 -1 -32 21 l-1 0 l0 -20 l-21 0 Z" /><glyph glyph-name="" unicode="c" d="M108 92 l-25 0 q-3 29 -24 30 q-26 1 -26 -51 q0 -50 27 -50 q22 0 23 32 l25 0 q-4 -53 -49 -54 q-48 1 -50 73 q2 72 50 74 q44 -1 49 -54 Z" /><glyph glyph-name="" unicode="d" d="M88 56 l0 30 q-1 35 -26 36 q-29 -1 -29 -49 q0 -53 28 -52 q27 0 27 35 ZM113 185 l0 -185 l-21 0 l0 20 l-1 0 q-7 -22 -32 -21 q-50 0 -50 73 q2 72 50 74 q20 -1 28 -16 l1 0 l0 55 l25 0 Z" /><glyph glyph-name="" unicode="e" d="M106 65 l-73 0 q1 -43 26 -44 q21 2 22 30 l25 0 q-7 -50 -47 -52 q-48 2 -50 73 q2 71 50 74 q45 -2 47 -66 l0 -15 ZM34 84 l47 0 q1 41 -23 40 q-24 1 -24 -40 Z" /><glyph glyph-name="" unicode="f" d="M40 122 l0 -122 l-24 0 l0 122 l-15 0 l0 21 l15 0 l0 13 q-1 30 30 29 l13 0 l0 -21 l-8 0 q-11 0 -11 -10 l0 -11 l19 0 l0 -21 l-19 0 Z" /><glyph glyph-name="" unicode="g" d="M88 58 l0 30 q0 34 -27 34 q-29 2 -28 -52 q0 -48 29 -49 q25 1 26 37 ZM92 143 l21 0 l0 -147 q-1 -43 -49 -45 q-52 2 -54 46 l25 0 q3 -21 26 -22 q29 -2 28 25 l0 18 l-1 0 q-7 -18 -29 -19 q-48 1 -50 73 q1 73 50 74 q26 1 32 -23 l1 0 l0 20 Z" /><glyph glyph-name="" unicode="h" d="M40 0 l-25 0 l0 185 l25 0 l0 -56 l1 0 q9 18 31 17 q40 -1 41 -46 l0 -100 l-25 0 l0 93 q0 30 -21 29 q-26 -2 -27 -29 l0 -93 Z" /><glyph glyph-name="" unicode="i" d="M41 0 l-25 0 l0 143 l25 0 l0 -143 ZM16 159 l0 26 l25 0 l0 -26 l-25 0 Z" /><glyph glyph-name="" unicode="j" d="M-6 -50 l0 23 l11 0 q12 0 12 13 l0 157 l24 0 l0 -159 q1 -35 -35 -34 l-12 0 ZM41 159 l-24 0 l0 26 l24 0 l0 -26 Z" /><glyph glyph-name="" unicode="k" d="M40 0 l-25 0 l0 185 l25 0 l0 -105 l46 63 l27 0 l-38 -52 l43 -91 l-27 0 l-33 70 l-18 -25 l0 -45 Z" /><glyph glyph-name="" unicode="l" d="M41 0 l-25 0 l0 185 l25 0 l0 -185 Z" /><glyph glyph-name="" unicode="m" d="M15 0 l0 143 l24 0 l0 -18 q10 21 33 21 q23 0 34 -18 q12 18 36 18 q42 0 42 -49 l0 -97 l-25 0 l0 96 q0 27 -21 26 q-26 1 -26 -32 l0 -90 l-25 0 l0 96 q0 27 -21 26 q-26 1 -26 -32 l0 -90 l-25 0 Z" /><glyph glyph-name="" unicode="n" d="M40 0 l-25 0 l0 143 l22 0 l0 -18 l1 0 q10 22 34 21 q40 -1 41 -46 l0 -100 l-25 0 l0 93 q0 30 -21 29 q-26 -2 -27 -29 l0 -93 Z" /><glyph glyph-name="" unicode="o" d="M119 72 q-1 -72 -55 -73 q-54 1 -55 73 q2 72 55 74 q53 -2 55 -74 ZM95 72 q0 53 -31 52 q-31 1 -31 -52 q0 -53 31 -53 q31 0 31 53 Z" /><glyph glyph-name="" unicode="p" d="M40 88 l0 -30 q1 -36 26 -37 q29 1 29 49 q1 54 -28 52 q-27 0 -27 -34 ZM15 -49 l0 192 l22 0 l0 -20 l1 0 q4 23 31 23 q49 -1 50 -74 q-2 -72 -50 -73 q-21 1 -28 14 l-1 0 l0 -62 l-25 0 Z" /><glyph glyph-name="" unicode="q" d="M88 58 l0 30 q0 34 -27 34 q-29 2 -28 -52 q0 -48 29 -49 q25 1 26 37 ZM113 143 l0 -192 l-25 0 l0 67 l-1 0 q-5 -18 -28 -19 q-48 1 -50 73 q1 73 50 74 q26 1 32 -23 l1 0 l0 20 l21 0 Z" /><glyph glyph-name="" unicode="r" d="M40 0 l-25 0 l0 143 l22 0 l0 -16 l1 0 q8 19 32 19 l0 -25 q-31 -1 -30 -35 l0 -86 Z" /><glyph glyph-name="" unicode="s" d="M93 102 l-23 0 q-1 20 -21 20 q-18 0 -18 -16 q0 -12 24 -21 q38 -13 38 -43 q-1 -42 -44 -43 q-42 2 -45 45 l23 0 q2 -22 24 -23 q19 1 19 19 q0 14 -25 22 q-37 13 -37 42 q2 41 42 42 q40 -3 43 -44 Z" /><glyph glyph-name="" unicode="t" d="M57 122 l-16 0 l0 -122 l-25 0 l0 122 l-16 0 l0 21 l16 0 l0 35 l25 0 l0 -35 l16 0 l0 -21 Z" /><glyph glyph-name="" unicode="u" d="M88 143 l25 0 l0 -143 l-22 0 l0 22 l-1 0 q-7 -23 -34 -23 q-40 1 -41 44 l0 100 l25 0 l0 -92 q0 -30 21 -30 q26 1 27 30 l0 92 Z" /><glyph glyph-name="" unicode="v" d="M44 0 l-42 143 l25 0 l30 -110 l30 110 l25 0 l-42 -143 l-26 0 Z" /><glyph glyph-name="" unicode="w" d="M74 143 l22 0 l27 -118 l20 118 l25 0 l-33 -143 l-27 0 l-22 116 l-1 0 l-23 -116 l-27 0 l-32 143 l24 0 l20 -118 l1 0 l26 118 Z" /><glyph glyph-name="" unicode="x" d="M84 0 l-28 50 l-28 -50 l-28 0 l42 74 l-39 69 l28 0 l25 -49 l25 49 l28 0 l-38 -69 l42 -74 l-29 0 Z" /><glyph glyph-name="" unicode="y" d="M112 143 l-59 -192 l-26 0 l16 53 l-41 139 l25 0 l30 -102 l30 102 l25 0 Z" /><glyph glyph-name="" unicode="z" d="M105 24 l0 -24 l-96 0 l0 23 l65 97 l-60 0 l0 23 l89 0 l0 -23 l-66 -96 l68 0 Z" /><glyph glyph-name="" unicode="&#x4e00;" d="M213 111 l0 -20 l-170 0 l0 20 l170 0 Z" /><glyph glyph-name="" unicode="&#x4e0b;" d="M206 204 l0 -19 l-72 0 l0 -72 q41 -12 52 -33 q8 -16 -1 -27 q-9 -9 -21 2 q-3 3 -8 15 q-10 23 -22 35 l0 -133 l-31 0 l0 213 l-69 0 l0 19 l172 0 Z" /><glyph glyph-name="" unicode="&#x4e16;" d="M109 210 l27 0 l0 -66 l24 0 l0 66 l28 0 l0 -66 l26 0 l0 -18 l-26 0 l0 -103 l-27 0 l0 19 l-25 0 l0 -18 l-27 0 l0 102 l-23 0 l0 -128 l118 0 l0 -18 l-119 0 l-8 -9 l-29 12 l10 13 l0 130 l-18 0 l0 18 l18 0 l0 54 l28 0 l0 -54 l23 0 l0 66 ZM161 126 l-25 0 l0 -66 l25 0 l0 66 Z" /><glyph glyph-name="" unicode="&#x4e1c;" d="M104 212 l32 0 q-6 -24 -8 -30 l87 0 l0 -18 l-92 0 q-12 -35 -26 -60 l24 0 l0 34 l31 0 l0 -34 l50 0 l0 -18 l-50 0 l0 -88 q4 -27 -38 -26 q-13 -4 -11 11 q-2 9 -22 14 l0 3 q32 -1 35 0 q6 0 5 6 l0 80 l-34 0 l-9 -11 l-24 14 l9 8 q19 36 28 67 l-48 0 l0 18 l54 0 q6 18 7 30 ZM160 69 q34 -15 51 -44 q8 -19 -1 -30 q-14 -13 -23 2 q-1 3 -4 12 q-9 37 -25 58 l2 2 ZM75 66 l32 -5 q-18 -49 -63 -71 l-2 2 q23 26 33 74 Z" /><glyph glyph-name="" unicode="&#x4e25;" d="M211 187 l-48 0 l0 -53 q11 20 16 44 l31 0 q-13 -38 -47 -54 l0 -7 l48 0 l0 -18 l-132 0 l0 -20 q0 -50 -8 -71 q-6 -19 -31 -38 l-2 1 q13 29 12 96 l0 55 l29 0 l0 -5 l10 0 l0 70 l-48 0 l0 18 l170 0 l0 -18 ZM134 187 l-17 0 l0 -70 l17 0 l0 70 ZM47 180 q31 -14 37 -35 q2 -12 -8 -18 q-12 -4 -16 7 q0 1 -1 3 q-2 20 -13 41 l1 2 Z" /><glyph glyph-name="" unicode="&#x4e30;" d="M148 212 l0 -28 l68 0 l0 -18 l-68 0 l0 -41 l61 0 l0 -17 l-61 0 l0 -43 l71 0 l0 -19 l-71 0 l0 -76 l-29 0 l0 76 l-72 0 l0 19 l72 0 l0 43 l-61 0 l0 17 l61 0 l0 41 l-65 0 l0 18 l65 0 l0 28 l29 0 Z" /><glyph glyph-name="" unicode="&#x4e3a;" d="M160 210 q-3 -36 -8 -68 l24 0 l11 15 l32 -12 l-10 -14 q-1 -76 -3 -126 q2 -31 -48 -33 q-8 -1 -8 7 q2 16 -24 20 l0 2 q37 -1 43 0 q9 2 8 13 q2 32 3 110 l-32 0 q-3 -18 -11 -43 q30 -13 34 -36 q3 -14 -10 -20 q-13 -4 -17 9 q0 1 -1 5 q-1 23 -9 36 q-22 -63 -89 -101 l-1 2 q59 63 73 148 l-69 0 l0 18 l72 0 q5 30 8 68 l32 0 ZM64 209 q39 -13 44 -36 q3 -14 -10 -22 q-14 -5 -18 8 q-4 28 -17 48 l1 2 Z" /><glyph glyph-name="" unicode="&#x4e4b;" d="M142 200 q8 -12 0 -21 q-9 -9 -20 -1 q-3 2 -6 8 q-7 14 -20 24 l1 2 q35 2 45 -12 ZM157 155 l-112 0 l0 18 l119 0 l11 14 l36 -10 l-14 -15 q-30 -76 -115 -138 q31 -30 136 -20 q4 0 1 -2 q-13 -8 -9 -23 q2 -4 1 -6 q-1 -1 -5 -1 q-71 -2 -99 11 q-12 5 -28 22 q-8 9 -10 9 q-5 3 -17 -28 q-1 9 -6 23 q-2 6 -3 10 q23 21 30 11 q62 68 84 125 Z" /><glyph glyph-name="" unicode="&#x4e50;" d="M180 212 l35 -21 q-48 -24 -130 -14 l0 -75 l35 0 l0 62 l29 0 l0 -62 l67 0 l0 -19 l-67 0 l0 -91 q3 -21 -32 -21 q-11 -2 -11 9 q0 11 -21 16 l0 3 q42 -3 35 6 l0 78 l-35 0 l-8 -10 l-30 11 l9 9 l0 104 l29 0 l0 -10 q58 6 95 25 ZM157 67 q44 -21 56 -56 q6 -14 -4 -24 q-13 -10 -21 1 q-2 5 -5 16 q-9 38 -28 61 l2 2 ZM77 62 l32 -2 q-17 -58 -67 -81 l-1 2 q22 31 36 81 Z" /><glyph glyph-name="" unicode="&#x4e66;" d="M102 211 l29 0 l0 -44 l39 0 l7 10 l34 -8 l-12 -12 q-7 -26 -44 -61 l19 0 l9 15 l30 -6 l-6 -13 l0 -76 q0 -25 -37 -28 q-8 -2 -7 6 q2 10 -22 19 l0 4 q40 -5 34 6 l0 56 l-44 0 l0 -109 l-29 0 l0 109 l-63 0 l0 17 l63 0 l0 54 l-54 0 l0 17 l54 0 l0 44 ZM182 204 q10 -8 7 -18 q-6 -10 -17 -5 q-5 2 -11 8 q-10 10 -22 16 l0 4 q29 5 43 -5 ZM164 150 l-33 0 l0 -54 l11 0 q14 28 22 54 Z" /><glyph glyph-name="" unicode="&#x4e86;" d="M175 214 l39 -14 q-9 -5 -14 -9 q-32 -39 -64 -54 l10 0 l0 -141 q3 -26 -39 -27 q-5 -1 -6 6 q-1 18 -29 21 l0 4 q48 -3 42 5 l0 132 l8 0 q11 12 33 46 l-110 0 l0 18 l118 0 l12 13 Z" /><glyph glyph-name="" unicode="&#x4e8b;" d="M113 210 l28 0 l0 -17 l70 0 l0 -18 l-70 0 l0 -17 l24 0 l7 10 l28 -6 l-5 -7 l0 -50 l-28 0 l0 8 l-26 0 l0 -18 l34 0 l5 8 l29 -7 l-5 -8 l0 -21 l8 0 l0 -17 l-8 0 l0 -39 l-28 0 l0 11 l-35 0 l0 -29 q2 -21 -37 -22 q-7 -1 -8 5 q1 18 -22 20 l0 4 q44 -3 39 6 l0 16 l-61 0 l0 17 l61 0 l0 11 l-74 0 l0 16 l1 1 l73 0 l0 10 l-60 0 l0 17 l60 0 l0 19 l-26 0 l0 -8 l-28 0 l0 59 l28 0 l0 -6 l26 0 l0 17 l-74 0 l0 18 l74 0 l0 17 ZM113 142 l-26 0 l0 -12 l26 0 l0 12 ZM167 142 l-26 0 l0 -12 l26 0 l0 12 ZM141 77 l0 -10 l35 0 l0 10 l-35 0 ZM141 50 l0 -11 l35 0 l0 11 l-35 0 Z" /><glyph glyph-name="" unicode="&#x4eac;" d="M113 62 l30 0 l0 -73 q4 -18 -39 -19 q-6 -1 -6 5 q-1 15 -20 19 l0 3 q43 -2 35 3 l0 62 ZM154 55 q48 -16 57 -54 q3 -21 -18 -22 q-8 1 -15 25 q-11 34 -26 50 l2 1 ZM71 54 l32 -2 q-15 -49 -61 -73 l-1 2 q17 22 30 73 ZM169 153 l30 -10 l-8 -9 l0 -71 l-28 0 l0 8 l-72 0 l0 -8 l-29 0 l0 87 l29 0 l0 -10 l70 0 l8 13 ZM91 122 l0 -33 l72 0 l0 33 l-72 0 ZM146 198 q2 -11 -4 -16 l71 0 l0 -18 l-173 0 l0 18 l77 0 q-3 1 -5 9 q-3 11 -8 18 l1 3 q36 0 41 -14 Z" /><glyph glyph-name="" unicode="&#x4eea;" d="M111 202 q9 -69 40 -122 q21 52 22 122 l31 0 q-4 -95 -35 -150 q23 -30 42 -46 q1 -1 -2 -2 q-14 -8 -7 -28 q1 -3 0 -5 q-2 -1 -4 1 q-31 28 -48 53 q-20 -24 -64 -54 l-2 2 q34 38 53 75 q-33 66 -31 154 l5 0 ZM62 212 l34 0 q-9 -30 -24 -49 l12 0 l0 -191 l-28 0 l0 172 q-2 -1 -6 -5 q-8 -7 -12 -10 l-2 2 q17 28 26 81 ZM125 212 q38 -21 37 -43 q0 -16 -13 -17 q-14 0 -15 16 q-2 25 -11 42 l2 2 Z" /><glyph glyph-name="" unicode="&#x4f1a;" d="M72 127 l104 0 l0 -18 l-104 0 l0 18 ZM47 82 l162 0 l0 -17 l-67 0 q-21 -38 -51 -61 q28 -1 72 3 q-13 27 -25 38 l2 2 q47 -21 62 -50 q7 -17 -5 -25 q-14 -6 -21 10 q-5 12 -9 18 q-30 -16 -107 -27 q1 0 -4 33 q12 -1 17 -1 q22 34 30 60 l-56 0 l0 17 ZM102 210 l38 0 q-3 -6 -4 -9 q33 -38 78 -51 q3 -1 0 -3 q-15 -10 -7 -28 q1 -3 0 -4 q-1 -1 -4 0 q-48 20 -73 76 q-23 -42 -89 -75 l-2 2 q41 41 63 92 Z" /><glyph glyph-name="" unicode="&#x4f53;" d="M137 212 l28 0 l0 -22 l47 0 l0 -18 l-47 0 l0 -147 l27 0 l0 -19 l-27 0 l0 -33 l-28 0 l0 33 l-31 0 l0 19 l31 0 l0 147 l-45 0 l0 18 l45 0 l0 22 ZM170 155 l4 0 q13 -62 44 -112 q2 -3 -2 -5 q-11 -6 -9 -26 q0 -2 -1 -3 q-1 0 -2 2 q-19 27 -27 59 q-7 30 -7 85 ZM107 150 l27 0 q-4 -96 -48 -140 l-1 1 q24 59 22 139 ZM65 213 l34 0 q-14 -36 -33 -51 l18 0 l0 -189 l-28 0 l0 182 q-3 -3 -10 -6 q1 0 -3 -2 l-2 2 q20 28 24 64 Z" /><glyph glyph-name="" unicode="&#x4f60;" d="M160 133 l0 -145 q1 -17 -35 -18 q-5 -1 -5 5 q1 16 -25 20 l0 4 q42 -3 36 4 l0 130 l29 0 ZM165 115 l2 1 q42 -51 40 -96 q-2 -19 -15 -22 q-14 -1 -15 16 q-1 60 -12 101 ZM95 113 l29 -1 q-5 -80 -39 -117 l-2 2 q13 47 12 116 ZM56 212 l33 0 q-8 -39 -27 -66 l19 0 l0 -175 l-28 0 l0 163 q-13 -13 -20 -19 l-2 2 q19 44 25 95 ZM137 184 l34 0 l8 13 l30 -10 q0 -1 -2 -3 q-3 -5 -4 -8 q-11 -33 -37 -53 l-3 1 q4 15 7 39 q-1 -1 0 4 l-41 0 q-16 -28 -43 -48 l-2 2 q23 44 27 91 l33 0 q-2 -10 -6 -24 q-1 -3 -1 -4 Z" /><glyph glyph-name="" unicode="&#x4fc3;" d="M186 213 l30 -11 l-8 -12 l0 -77 l-28 0 l0 12 l-42 0 l0 -12 l-29 0 l0 99 l29 0 l0 -11 l41 0 l7 12 ZM138 183 l0 -40 l42 0 l0 40 l-42 0 ZM146 110 l29 0 l0 -35 l43 0 l0 -18 l-43 0 l0 -52 q17 -4 41 -4 q3 0 1 -1 q-11 -9 -7 -22 q1 -7 -3 -6 q-67 3 -82 46 q-8 -23 -29 -42 l-2 2 q14 32 13 107 l27 0 q-1 -34 -6 -55 q8 -10 18 -15 l0 95 ZM67 212 l34 0 q-15 -39 -29 -57 l21 0 l0 -184 l-29 0 l0 174 q-7 -7 -20 -19 l-2 2 q18 38 25 84 Z" /><glyph glyph-name="" unicode="&#x5146;" d="M95 212 l29 0 l0 -131 q3 -71 -73 -111 l-1 3 q39 39 45 101 l0 22 q-12 -35 -37 -64 q-3 27 -10 41 q23 12 47 38 l0 101 ZM141 212 l29 0 l0 -81 q8 19 12 52 l33 0 q-15 -48 -45 -66 l0 -8 q44 -15 43 -44 q-4 -20 -22 -16 q-5 5 -7 17 q-4 19 -14 33 l0 -91 q0 -6 11 -6 q11 -5 29 42 l2 -1 q-7 -26 6 -35 q4 -3 3 -6 q-10 -30 -48 -27 q-36 -1 -32 26 l0 211 ZM55 183 q37 -22 35 -46 q-2 -15 -13 -17 q-13 0 -14 13 q-1 32 -11 49 l3 1 Z" /><glyph glyph-name="" unicode="&#x5176;" d="M66 212 l30 0 l0 -25 l61 0 l0 25 l29 0 l0 -25 l24 0 l0 -19 l-24 0 l0 -102 l27 0 l0 -19 l-174 0 l0 19 l27 0 l0 102 l-24 0 l0 19 l24 0 l0 25 ZM96 168 l0 -21 l61 0 l0 21 l-61 0 ZM157 129 l-61 0 l0 -23 l61 0 l0 23 ZM96 88 l0 -22 l61 0 l0 22 l-61 0 ZM141 39 q50 -19 60 -39 q8 -17 -3 -27 q-13 -9 -21 7 q-9 20 -38 58 l2 1 ZM82 38 l35 0 q-15 -45 -77 -66 l-2 1 q29 28 44 65 Z" /><glyph glyph-name="" unicode="&#x51ac;" d="M163 61 q13 -9 9 -22 q-7 -13 -20 -6 q-4 2 -12 9 q-26 21 -55 32 l0 3 q55 4 78 -16 ZM163 0 q10 -12 5 -22 q-7 -11 -19 -5 q-5 3 -16 13 q-29 25 -58 37 l0 3 q57 1 88 -26 ZM109 190 l48 0 l8 9 l36 -9 q-1 -2 -5 -6 q-5 -4 -6 -6 q-18 -27 -39 -48 q30 -13 61 -15 q4 0 0 -5 q-10 -11 -7 -22 q1 -6 -4 -6 q-43 8 -73 30 q-32 -21 -83 -30 l-1 3 q32 14 66 43 q-16 18 -22 37 q-17 -18 -42 -28 l-1 2 q20 23 40 72 l37 0 q-1 -1 -2 -4 q-7 -12 -11 -17 ZM149 172 l-54 0 q0 0 -2 -2 q14 -16 33 -27 q17 17 23 29 Z" /><glyph glyph-name="" unicode="&#x51cc;" d="M140 213 l29 0 l0 -19 l41 0 l0 -17 l-41 0 l0 -23 l47 0 l0 -17 l-124 0 l0 17 l48 0 l0 23 l-40 0 l0 17 l40 0 l0 19 ZM114 129 l31 0 q-4 -18 -24 -38 l24 0 q-3 -10 -4 -13 l29 0 l7 8 l30 -10 q-1 -1 -4 -4 q-5 -5 -5 -7 q-8 -30 -25 -49 q24 -15 40 -16 q3 0 -1 -3 q-6 -5 -8 -10 q-1 -5 1 -11 q1 -3 0 -4 q-1 -1 -4 0 q-35 13 -48 27 q-23 -15 -66 -23 l0 2 q32 16 53 37 q-7 14 -12 36 q-11 -15 -35 -29 l-1 1 q16 23 23 63 q-7 -6 -21 -14 l-2 2 q18 28 22 55 ZM83 118 l2 -1 q3 -41 -2 -66 q-4 -23 -21 -54 q-7 11 -20 29 q23 32 41 92 ZM46 197 l1 2 q42 -13 43 -36 q-1 -13 -12 -16 q-12 -2 -15 11 q0 1 -1 4 q-5 20 -16 35 ZM162 129 l2 1 q41 -6 50 -30 q3 -12 -6 -17 q-12 -5 -17 6 q-10 23 -29 40 ZM168 61 l-34 0 q10 -17 20 -29 q10 15 14 29 Z" /><glyph glyph-name="" unicode="&#x521b;" d="M72 212 l34 0 q-4 -14 -7 -21 q26 -6 34 -16 q8 -10 0 -20 q-9 -9 -17 2 q-8 14 -21 25 q-13 -24 -36 -43 l27 0 l0 -8 l17 0 l8 11 l27 -7 l-7 -10 l0 -53 q2 -20 -25 -21 q-5 -2 -5 5 q-1 15 -14 17 l0 3 q21 -1 18 5 l0 32 l-19 0 l0 -109 q-1 -5 7 -4 q8 -7 27 35 l3 -1 q-9 -27 3 -34 q3 -1 2 -2 q-9 -27 -36 -26 q-36 -1 -34 30 l0 137 q-5 -5 -15 -13 l-2 3 q24 35 31 83 ZM206 -5 q4 -21 -34 -23 q-7 -1 -7 5 q1 19 -24 20 l0 3 q45 -2 38 4 l0 206 l27 0 l0 -215 ZM143 186 l24 0 l0 -160 l-24 0 l0 160 Z" /><glyph glyph-name="" unicode="&#x5230;" d="M48 208 l93 0 l0 -17 l-33 0 q-14 -33 -37 -57 q21 0 42 2 q-2 11 -10 28 l2 2 q30 -18 35 -44 q0 -14 -9 -19 q-10 -4 -15 8 q-2 6 -2 17 q-20 -18 -66 -25 q0 15 -3 31 q1 0 3 0 q6 -1 8 0 q10 18 19 57 l-27 0 l0 17 ZM81 103 l28 0 l0 -26 l28 0 l0 -18 l-28 0 l0 -38 q14 3 30 10 l2 -3 q-33 -33 -89 -52 q0 -1 -7 31 q9 1 24 4 q8 1 12 2 l0 46 l-29 0 l0 18 l29 0 l0 26 ZM184 213 l28 0 l0 -224 q5 -17 -35 -18 q-7 -1 -7 5 q0 16 -23 20 l0 3 q45 -4 37 6 l0 208 ZM146 178 l26 0 l0 -146 l-26 0 l0 146 Z" /><glyph glyph-name="" unicode="&#x524d;" d="M69 212 q58 -3 44 -31 l29 0 q9 12 15 31 l39 0 q-16 -20 -35 -31 l56 0 l0 -18 l-173 0 l0 18 l48 0 q-3 2 -6 8 q-7 12 -18 21 l1 2 ZM203 -9 q0 -20 -33 -20 q-5 -1 -6 0 q-1 1 -1 6 q0 15 -19 17 l0 3 q34 -1 31 3 l0 153 l28 0 l0 -162 ZM112 152 l29 -7 l-8 -12 l0 -141 q1 -18 -25 -20 q-8 -1 -7 6 q1 12 -13 17 l0 3 q21 -2 18 2 l0 40 l-20 0 l0 -69 l-27 0 l0 180 l27 0 l0 -9 l18 0 l8 10 ZM141 132 l25 0 l0 -111 l-25 0 l0 111 ZM86 125 l0 -25 l20 0 l0 25 l-20 0 ZM106 83 l-20 0 l0 -26 l20 0 l0 26 Z" /><glyph glyph-name="" unicode="&#x529b;" d="M86 210 l33 0 q-1 -16 -1 -38 l54 0 l7 12 l32 -5 l-8 -14 l0 -137 q4 -53 -55 -56 q-9 -2 -8 7 q-4 18 -32 21 l0 4 q75 -7 65 19 l0 131 l-56 0 q-2 -76 -16 -109 q-11 -32 -53 -73 l-3 2 q36 48 39 180 l-41 0 l0 18 l42 0 q0 2 0 10 q1 19 1 28 Z" /><glyph glyph-name="" unicode="&#x5305;" d="M71 211 l33 0 q-1 -5 -4 -13 q-2 -8 -3 -11 l78 0 l10 15 l32 -11 l-10 -13 l0 -80 q2 -67 -51 -77 q-9 -2 -9 4 q-2 15 -22 18 l0 3 q35 -1 42 9 q10 14 11 48 l0 67 l-89 0 q-7 -14 -20 -28 l26 0 l0 -7 l30 0 l9 13 l29 -9 l-8 -11 l0 -71 l-28 0 l0 7 l-32 0 l0 -52 q-1 -10 7 -11 q6 -1 42 -1 q33 -1 45 12 q4 5 19 33 l3 -2 q-11 -29 2 -37 q4 -2 3 -4 q-15 -31 -71 -30 q-56 -1 -64 6 q-15 8 -14 40 l0 122 q-7 -7 -19 -17 l-2 2 q19 38 25 86 ZM95 117 l0 -36 l32 0 l0 36 l-32 0 Z" /><glyph glyph-name="" unicode="&#x5347;" d="M188 212 l0 -89 l26 0 l0 -19 l-26 0 l0 -132 l-29 0 l0 132 l-45 0 l0 -20 q2 -80 -68 -111 l-2 2 q39 35 40 109 l0 20 l-43 0 l0 19 l43 0 l0 58 q-1 0 -3 0 q-22 4 -36 9 l0 2 q39 3 70 20 q18 -10 36 -16 q-15 -11 -37 -14 l0 -59 l45 0 l0 89 l29 0 Z" /><glyph glyph-name="" unicode="&#x5370;" d="M127 208 l29 0 l0 -15 l20 0 l10 14 l30 -9 l-9 -13 l0 -165 q5 -22 -28 -22 q-8 -1 -8 3 q2 18 -14 20 l0 4 q24 -2 21 5 l0 145 l-22 0 l0 -206 l-29 0 l0 219 q-21 -11 -48 -6 l0 -60 l41 0 l0 -19 l-41 0 l0 -70 q5 1 23 5 q15 3 21 4 l0 -3 q-30 -29 -74 -43 q-3 18 -8 32 q3 0 7 1 q2 0 2 0 l0 179 l29 0 l0 -15 q12 7 24 18 l24 -20 l0 17 Z" /><glyph glyph-name="" unicode="&#x53d1;" d="M218 139 l-81 0 q0 -3 -1 -8 q-2 -14 -4 -19 l39 0 l9 13 l32 -10 l-11 -14 q-9 -40 -30 -69 q23 -21 46 -29 q3 -1 -1 -3 q-15 -7 -10 -23 q2 -5 1 -6 q-1 -1 -5 1 q-31 17 -50 38 q-27 -23 -72 -34 l-1 2 q35 21 59 53 q-11 19 -16 45 q-20 -62 -75 -102 l-2 3 q41 48 61 162 l-20 0 l-10 -9 l-28 16 l10 11 l6 42 l30 0 l-6 -42 l21 0 q3 16 5 49 q0 4 0 6 l31 0 q-2 -29 -5 -55 l78 0 l0 -18 ZM156 210 q37 -8 42 -26 q4 -15 -8 -21 q-12 -4 -17 10 q-5 21 -19 35 l2 2 ZM151 53 q11 18 18 42 l-41 0 q6 -19 23 -42 Z" /><glyph glyph-name="" unicode="&#x53d8;" d="M142 202 q5 -7 -1 -17 l71 0 l0 -19 l-48 0 l0 -15 q29 -6 39 -20 q19 -32 -9 -35 q-6 3 -12 19 q-9 20 -18 29 l0 -51 l-27 0 l0 73 l-19 0 l0 -73 l-27 0 l0 49 q-13 -37 -49 -51 l-1 3 q16 17 21 56 l29 0 l0 16 l-49 0 l0 19 l74 0 q-2 1 -4 6 q-4 10 -12 17 l1 4 q35 3 41 -10 ZM173 95 l30 -10 q0 -1 -3 -3 q-5 -4 -9 -9 q-19 -32 -40 -55 q27 -12 60 -15 q4 0 0 -3 q-15 -10 -12 -24 q1 -3 0 -4 q-1 -1 -4 0 q-48 13 -67 28 q-31 -21 -89 -28 l0 3 q36 14 71 40 q-16 18 -33 51 l-17 0 l0 17 l105 0 l8 12 ZM154 66 l-64 0 q14 -20 37 -35 q18 18 27 35 Z" /><glyph glyph-name="" unicode="&#x53e3;" d="M83 203 l0 -14 l75 0 l10 14 l31 -10 l-8 -15 l0 -199 l-30 0 l0 21 l-78 0 l0 -20 l-31 0 l0 223 l31 0 ZM83 170 l0 -151 l77 0 l0 151 l-77 0 Z" /><glyph glyph-name="" unicode="&#x53e4;" d="M110 211 l34 0 q0 -21 -4 -40 l74 0 l0 -19 l-78 0 q-12 -42 -44 -54 l0 -6 l70 0 l7 14 l31 -7 l-6 -11 l0 -116 l-31 0 l0 19 l-71 0 l0 -20 l-30 0 l0 134 l30 0 q9 15 15 47 l-65 0 l0 19 l67 0 q1 10 1 40 ZM92 74 l0 -66 l71 0 l0 66 l-71 0 Z" /><glyph glyph-name="" unicode="&#x5409;" d="M114 212 l32 0 l0 -32 l69 0 l0 -18 l-69 0 l0 -33 l64 0 l0 -18 l-154 0 l0 18 l58 0 l0 32 l-69 0 l0 19 l69 0 l0 32 ZM94 91 l0 -14 l69 0 l10 13 l31 -8 l-9 -12 l0 -99 l-31 0 l0 19 l-70 0 l0 -19 l-31 0 l0 120 l31 0 ZM164 60 l-70 0 l0 -54 l70 0 l0 54 Z" /><glyph glyph-name="" unicode="&#x5473;" d="M147 209 l29 0 l0 -36 l33 0 l0 -17 l-33 0 l0 -34 l41 0 l0 -17 l-41 0 l0 -133 l-29 0 l0 86 q-13 -46 -54 -76 l-2 2 q26 37 34 109 l22 0 l0 12 l-35 0 l0 17 l35 0 l0 34 l-27 0 l0 17 l27 0 l0 36 ZM89 188 l26 -9 l-9 -11 l0 -135 l-24 0 l0 11 l-12 0 l0 -11 l-24 0 l0 151 l24 0 l0 -7 l11 0 l8 11 ZM82 160 l-12 0 l0 -98 l12 0 l0 98 ZM180 97 l7 0 q10 -51 30 -75 q5 -4 -1 -7 q-12 -10 -8 -28 q1 -6 -1 -6 q-1 -1 -4 3 q-25 24 -23 113 Z" /><glyph glyph-name="" unicode="&#x559c;" d="M142 212 l0 -9 l70 0 l0 -17 l-70 0 l0 -13 l63 0 l0 -17 l-154 0 l0 17 l60 0 l0 13 l-66 0 l0 17 l66 0 l0 9 l31 0 ZM175 151 l31 -8 l-9 -10 l0 -41 l-29 0 l0 3 l-83 0 l0 -3 l-29 0 l0 57 l29 0 l0 -8 l82 0 l8 10 ZM85 125 l0 -15 l83 0 l0 15 l-83 0 ZM159 92 q22 -6 32 -8 q-6 -7 -19 -15 l40 0 l0 -17 l-173 0 l0 17 l44 0 q-2 1 -5 4 q-7 8 -17 13 l0 2 q51 8 45 -19 l40 0 q7 9 13 23 ZM174 51 l31 -8 l-9 -11 l0 -60 l-30 0 l0 12 l-82 0 l0 -12 l-30 0 l0 73 l30 0 l0 -5 l82 0 l8 11 ZM166 24 l-82 0 l0 -24 l82 0 l0 24 Z" /><glyph glyph-name="" unicode="&#x559d;" d="M175 212 l29 -7 l-8 -10 l0 -81 l-27 0 l0 8 l-33 0 l0 -7 l-27 0 l0 97 l27 0 l0 -10 l33 0 l6 10 ZM39 189 l24 0 l0 -11 l10 0 l6 11 l25 -7 l-7 -10 l0 -160 l-24 0 l0 17 l-10 0 l0 -17 l-24 0 l0 177 ZM169 185 l-33 0 l0 -14 l33 0 l0 14 ZM73 161 l-10 0 l0 -115 l10 0 l0 115 ZM136 153 l0 -14 l33 0 l0 14 l-33 0 ZM115 110 l31 0 q-1 -1 -2 -4 q-2 -6 -3 -6 l36 0 l7 9 l27 -7 l-6 -10 l0 -94 q1 -25 -36 -27 q-7 -1 -7 5 q-1 13 -19 18 l0 2 q39 -4 33 4 l0 83 l-50 0 q-9 -8 -18 -13 l18 0 l0 -52 l45 0 l0 -18 l-45 0 l-6 -7 l-24 7 l8 9 l0 59 q-2 -1 -5 -3 l-2 2 q12 19 18 43 ZM138 78 l23 0 q-2 -11 -6 -22 q20 -10 17 -24 q-2 -7 -9 -8 q-7 0 -8 7 q0 2 -1 6 q0 8 -2 14 q-5 -14 -23 -29 l-2 1 q9 20 11 55 Z" /><glyph glyph-name="" unicode="&#x5634;" d="M128 211 l21 0 l0 -19 l13 0 l0 -17 l-13 0 l0 -20 q3 0 13 4 l1 -3 q-13 -14 -35 -27 l28 0 q-3 -8 -8 -13 l21 0 l5 6 l26 -6 q0 -1 -3 -3 q-4 -3 -7 -8 q-7 -14 -28 -25 l22 0 l6 10 l27 -6 l-6 -9 l0 -83 q0 -20 -37 -22 q-6 -1 -6 5 q0 14 -20 16 l0 3 q29 -1 32 0 q6 0 5 5 l0 14 l-17 0 l0 -14 l-23 0 l0 14 l-18 0 q-5 -20 -44 -42 l-1 2 q24 25 24 57 l0 50 q-2 0 -6 -2 l-2 2 l0 -49 l-21 0 l0 17 l-9 0 l0 -18 l-21 0 l0 154 l21 0 l0 -8 l8 0 l5 8 l21 -4 l-4 -6 q0 -37 0 -31 q1 0 3 1 q2 0 2 0 l0 53 l17 0 l0 -50 q1 0 8 2 l0 62 ZM187 211 l0 -34 q6 9 9 26 l22 -4 q-13 -25 -31 -34 l0 -18 q2 -4 9 0 q9 10 13 27 l3 -1 q-5 -19 4 -24 q3 -2 2 -5 q-8 -20 -25 -21 q-30 -2 -28 26 l0 62 l22 0 ZM145 66 l-16 0 l0 -12 l16 0 l0 12 ZM185 66 l-17 0 l0 -12 l17 0 l0 12 ZM185 40 l-17 0 l0 -12 l17 0 l0 12 ZM77 160 l-9 0 l0 -96 l9 0 l0 96 ZM120 88 l9 0 l0 -8 l21 0 q2 3 7 13 q2 4 3 6 l-25 0 q-1 -1 -5 -4 q-7 -5 -10 -7 ZM126 128 q-2 -1 -7 -3 q-10 -5 -14 -6 q-3 15 -7 23 l0 -62 q17 19 28 48 ZM128 28 l17 0 l0 12 l-16 0 l0 -5 q0 -3 -1 -7 Z" /><glyph glyph-name="" unicode="&#x56de;" d="M176 213 l29 -10 l-9 -12 l0 -219 l-28 0 l0 16 l-95 0 l0 -17 l-27 0 l0 240 l27 0 l0 -12 l92 0 l11 14 ZM73 181 l0 -177 l95 0 l0 177 l-95 0 ZM135 154 l27 -9 l-9 -13 l0 -102 l-26 0 l0 18 l-14 0 l0 -18 l-26 0 l0 120 l26 0 l0 -9 l14 0 l8 13 ZM127 124 l-14 0 l0 -59 l14 0 l0 59 Z" /><glyph glyph-name="" unicode="&#x56e2;" d="M184 212 l29 -12 l-8 -10 l0 -219 l-29 0 l0 14 l-94 0 l0 -13 l-30 0 l0 237 l30 0 l0 -9 l93 0 l9 12 ZM176 182 l-94 0 l0 -142 q18 32 26 84 l22 0 l0 12 l-42 0 l0 18 l42 0 l0 18 l26 0 l0 -18 l16 0 l0 -18 l-16 0 l0 -106 q2 -19 -32 -18 q-6 0 -6 2 q-3 18 -21 18 l0 4 q39 -2 33 4 l0 60 q-11 -37 -48 -67 l0 -32 l94 0 l0 181 Z" /><glyph glyph-name="" unicode="&#x5728;" d="M105 211 l35 0 q-4 -15 -9 -29 l83 0 l0 -17 l-91 0 q-16 -32 -45 -56 l10 0 l0 -138 l-31 0 l0 123 q-2 -1 -10 -5 q-4 -2 -6 -3 l-1 2 q31 35 50 77 l-49 0 l0 17 l56 0 q6 18 8 29 ZM169 147 l0 -54 l40 0 l0 -17 l-40 0 l0 -76 l45 0 l0 -18 l-122 0 l0 18 l46 0 l0 76 l-39 0 l0 17 l39 0 l0 54 l31 0 Z" /><glyph glyph-name="" unicode="&#x590d;" d="M65 212 l35 0 q-1 -3 -3 -9 q-1 -2 -1 -3 l118 0 l0 -18 l-128 0 q-7 -9 -12 -13 l24 0 l0 -7 l63 0 l7 10 l29 -8 l-7 -11 l0 -73 l-30 0 l0 7 l-62 0 l0 -7 l-30 0 l0 84 q-2 -1 -6 -3 q-10 -7 -18 -10 l-2 2 q18 23 23 59 ZM98 144 l0 -11 l62 0 l0 11 l-62 0 ZM160 115 l-62 0 l0 -11 l62 0 l0 11 ZM164 78 l30 -7 q0 -1 -3 -4 q-4 -4 -5 -6 q-15 -32 -32 -48 q30 -13 58 -13 q2 0 2 -1 q0 -1 -2 -2 q-16 -9 -9 -22 q1 -3 1 -4 q-1 -1 -4 -1 q-45 10 -67 26 q-38 -25 -91 -27 l0 3 q41 12 75 40 q-9 11 -17 37 q-11 -25 -48 -47 l-1 2 q19 30 26 71 l32 0 q0 -1 -1 -4 q0 -2 0 -2 l48 0 l8 9 ZM131 26 q11 11 17 25 l-40 0 q11 -15 23 -25 Z" /><glyph glyph-name="" unicode="&#x5929;" d="M112 188 l-56 0 l0 19 l151 0 l0 -19 l-61 0 q0 -14 -2 -49 q2 26 0 -3 l70 0 l0 -19 l-68 0 q21 -70 70 -111 q5 -3 0 -5 q-13 -6 -10 -25 q1 -4 0 -5 q-2 -1 -4 1 q-52 39 -64 118 q-16 -79 -93 -118 l-2 2 q61 65 67 143 l-62 0 l0 19 l64 0 q2 31 0 52 Z" /><glyph glyph-name="" unicode="&#x597d;" d="M189 210 l31 -9 l-6 -7 q-9 -22 -33 -46 l8 0 l0 -34 l31 0 l0 -19 l-31 0 l0 -99 q4 -22 -37 -24 q-3 -1 -4 5 q-2 17 -19 21 l0 2 q33 -3 31 3 l0 92 l-31 0 l0 19 l31 0 l0 34 l8 0 q7 20 10 34 l-40 0 l0 18 l44 0 l7 10 ZM66 211 l29 0 q0 -5 -1 -13 q0 -9 -1 -13 l11 0 l6 11 l26 -8 l-7 -11 q1 -83 -18 -129 q13 -11 19 -20 q11 -17 -1 -27 q-14 -3 -21 11 q-3 5 -9 13 q-19 -28 -54 -49 l-1 1 q25 26 39 65 q-15 14 -31 20 q9 37 13 105 l-18 0 l0 18 l19 0 q0 9 0 26 ZM90 60 q14 47 13 107 l-11 0 q-5 -66 -13 -101 q1 -1 5 -3 q5 -2 6 -3 Z" /><glyph glyph-name="" unicode="&#x5982;" d="M53 210 l31 0 q-1 -6 -1 -17 q-1 -11 -1 -17 l8 0 l8 13 l28 -7 l0 7 l29 0 l0 -12 l16 0 l7 13 l30 -5 l-7 -10 l0 -190 l-29 0 l0 17 l-17 0 l0 -17 l-29 0 l0 195 q-1 -1 -3 -4 q-2 -2 -3 -4 q0 -58 -4 -85 q-4 -31 -14 -52 q14 -10 19 -21 q9 -20 -2 -27 q-11 -2 -18 10 q-3 5 -13 16 q-15 -18 -50 -41 l-2 2 q24 24 38 55 q-18 17 -31 24 q7 54 9 106 l-17 0 l0 17 l18 0 q0 13 0 34 ZM172 20 l0 140 l-17 0 l0 -140 l17 0 ZM90 159 l-9 0 q-5 -60 -14 -104 q3 -1 7 -4 q5 -2 6 -3 q12 46 10 111 Z" /><glyph glyph-name="" unicode="&#x5a01;" d="M146 211 l27 0 q0 -15 0 -32 l23 0 q-5 3 -9 11 q-5 9 -12 16 l1 3 q21 0 32 -12 q5 -10 -4 -18 l12 0 l0 -16 l-43 0 q1 -53 5 -84 q8 28 9 64 l26 0 q-7 -75 -28 -112 q4 -11 6 -17 q1 -12 17 29 l2 -1 q-9 -32 3 -36 q2 -1 2 -3 q-5 -42 -32 -27 q-10 8 -18 27 q-15 -14 -42 -29 l-1 2 q23 24 37 51 q-6 25 -10 80 l-3 -4 q-4 -53 -15 -76 q9 -5 12 -13 q3 -9 -3 -14 q-6 -4 -14 0 q-1 1 -4 5 q-2 2 -3 3 q-20 -21 -56 -33 l-1 2 q29 20 43 45 q-8 8 -23 14 q6 23 10 55 l-12 0 l0 -10 q0 -66 -35 -109 l-2 1 q10 29 10 97 l0 122 l27 0 l0 -13 l66 0 q0 11 0 32 ZM95 130 l-15 0 l0 -21 l14 0 q0 3 0 9 q1 8 1 12 ZM122 91 l-8 0 q0 -1 -1 -4 q-5 -36 -9 -48 q4 -1 7 -3 q9 22 11 55 ZM80 163 l0 -16 l63 0 l0 -17 l-24 0 q-2 -10 -2 -21 l6 0 l6 8 q4 -1 13 -4 q6 -2 7 -2 q0 1 0 3 q-2 25 -2 49 l-67 0 Z" /><glyph glyph-name="" unicode="&#x5b50;" d="M174 207 l34 -7 l-10 -11 q-21 -31 -51 -48 l7 0 l0 -29 l65 0 l0 -18 l-65 0 l0 -95 q5 -20 -37 -22 q-4 0 -5 4 q0 15 -23 19 l0 2 q40 -2 36 7 l0 85 l-76 0 l0 18 l76 0 l0 29 l5 0 q7 9 22 32 q2 3 3 4 l-92 0 l0 19 l102 0 l9 11 Z" /><glyph glyph-name="" unicode="&#x5b57;" d="M193 130 l-11 -7 q-18 -21 -43 -35 l8 0 l0 -14 l71 0 l0 -19 l-71 0 l0 -61 q6 -22 -39 -24 q-10 -2 -9 7 q0 12 -22 17 l0 4 q31 -1 34 0 q6 0 5 5 l0 52 l-71 0 l0 19 l71 0 l0 14 l7 0 q1 1 16 27 l-62 0 l0 17 l71 0 l10 10 l18 -6 q2 9 2 25 l-102 0 q2 -9 -2 -20 q-7 -12 -20 -9 q-11 4 -9 18 q1 4 5 10 q9 14 7 34 l3 2 q6 -6 12 -18 l46 0 q0 2 -2 3 q-2 3 -3 9 q-2 12 -8 19 l1 2 q32 1 40 -13 q6 -10 -3 -20 l34 0 l10 14 l32 -13 l-8 -8 q-9 -25 -29 -37 l11 -4 Z" /><glyph glyph-name="" unicode="&#x5b9e;" d="M82 142 q37 -2 46 -18 q6 -11 -2 -19 q-9 -8 -17 0 q-1 2 -5 8 q-12 19 -23 27 l1 2 ZM168 138 q0 -46 -7 -76 l51 0 l0 -19 l-57 0 q-3 -6 -5 -10 q49 -12 61 -35 q6 -12 -4 -21 q-10 -8 -18 2 q-2 3 -6 10 q-13 20 -36 39 q-23 -38 -97 -56 l-1 3 q58 28 74 68 l-78 0 l0 19 l84 0 q8 28 8 76 l31 0 ZM110 89 q4 -10 -3 -17 q-9 -7 -16 -1 q-3 3 -7 11 q-10 18 -23 28 l1 2 q39 -2 48 -23 ZM103 211 q53 2 37 -30 l37 0 l9 14 l31 -12 l-8 -10 q-8 -26 -33 -45 l-2 1 q1 7 3 23 q1 9 1 11 l-106 0 q1 -4 -3 -15 q-5 -12 -18 -10 q-11 4 -9 17 q1 5 6 12 q10 14 11 29 l2 0 q3 -5 8 -15 l49 0 q-3 3 -6 10 q-3 9 -10 17 l1 3 Z" /><glyph glyph-name="" unicode="&#x5bb6;" d="M184 144 l0 -17 l-46 0 q-10 -15 -18 -21 q18 -14 25 -25 q16 14 30 37 l32 -10 q-16 -21 -42 -29 q16 -40 48 -59 q2 -1 0 -3 q-11 -9 -6 -25 q1 -4 0 -5 q-2 -1 -5 1 q-39 21 -45 88 q-1 0 -4 -1 q-3 0 -5 -1 q4 -12 4 -28 l0 -37 q2 -36 -33 -39 q-9 -3 -8 5 q-1 15 -23 19 l0 3 q45 -9 38 23 l0 10 q-34 -29 -82 -33 l0 2 q42 20 81 66 q0 3 -2 5 q-26 -26 -76 -33 l-1 2 q39 21 67 55 q-1 2 -4 3 q-20 -14 -60 -21 l-1 3 q34 19 56 48 l-28 0 l0 17 l108 0 ZM110 213 q49 -1 36 -30 l36 0 l7 12 l28 -8 l-6 -8 q-5 -22 -30 -34 l-3 1 q0 3 2 8 q1 9 2 13 l-105 0 q1 -6 -3 -13 q-8 -12 -19 -9 q-11 4 -9 18 q1 4 7 10 q11 12 12 25 l3 1 q4 -10 2 -5 q2 -5 5 -11 l46 0 q-3 3 -4 11 q-2 11 -7 17 l0 2 Z" /><glyph glyph-name="" unicode="&#x5bb9;" d="M83 148 l31 0 q-17 -34 -53 -54 l-1 2 q16 27 23 52 ZM112 126 l33 0 q-1 -2 -2 -5 q-2 -6 -4 -8 q30 -35 75 -42 q2 0 2 -1 q0 -1 -2 -2 q-12 -8 -5 -26 q1 -3 0 -3 q-1 -1 -3 0 q-1 0 -4 1 q-11 3 -13 5 l0 -74 l-30 0 l0 15 l-59 0 l0 -15 l-31 0 l0 76 q-2 -1 -12 -5 q-7 -3 -12 -5 l-2 3 q44 33 69 86 ZM159 37 l-59 0 l0 -36 l59 0 l0 36 ZM185 124 q6 -12 -2 -20 q-9 -6 -17 3 q-3 4 -8 11 q-9 17 -24 31 l1 3 q26 -7 37 -14 q3 7 4 22 l-105 0 q2 -10 -3 -21 q-5 -12 -18 -10 q-11 4 -8 17 q1 3 3 8 q8 18 9 39 l3 1 q8 -11 9 -17 l52 0 q-4 3 -6 13 q-2 12 -7 18 l2 2 q50 -5 31 -33 l39 0 l9 13 l32 -11 l-8 -9 q-10 -23 -30 -38 q0 -1 2 -3 q2 -3 3 -5 ZM163 60 q-17 13 -32 39 q-15 -25 -37 -39 l6 0 l0 -6 l60 0 l3 6 Z" /><glyph glyph-name="" unicode="&#x5bf9;" d="M171 212 l29 0 l0 -35 l18 0 l0 -18 l-18 0 l0 -164 q2 -23 -39 -23 q-5 -2 -5 3 q0 19 -22 22 l0 3 q42 -2 37 6 l0 153 l-48 0 l0 18 l48 0 l0 35 ZM94 190 l30 -8 l-8 -12 q-1 -43 -12 -86 q17 -28 21 -50 q2 -18 -9 -24 q-13 -5 -18 11 q-1 4 -4 13 q-3 10 -4 13 q-15 -33 -47 -57 l-2 3 q25 36 36 90 q-13 35 -30 64 l3 2 q24 -24 32 -35 q4 18 4 45 l-43 0 l0 18 l43 0 l8 13 ZM124 131 q37 -28 40 -52 q0 -18 -13 -22 q-13 -2 -14 15 q-2 30 -15 57 l2 2 Z" /><glyph glyph-name="" unicode="&#x5c1a;" d="M111 211 l30 0 l0 -69 q16 22 28 60 q4 0 13 -2 q15 -1 21 -2 q-17 -46 -62 -64 l0 -6 l32 0 l10 12 l30 -9 l-9 -12 l0 -124 q3 -24 -38 -24 q-10 -1 -9 8 q-1 14 -24 18 l0 3 q46 -3 42 2 l0 107 l-94 0 l0 -136 l-29 0 l0 164 l29 0 l0 -9 l30 0 l0 83 ZM55 203 q40 -15 45 -41 q1 -12 -9 -17 q-10 -5 -17 5 q-1 2 -3 10 q-5 25 -18 40 l2 3 ZM145 97 l27 -6 l-9 -13 l0 -71 l-25 0 l0 8 l-20 0 l0 -8 l-25 0 l0 87 l25 0 l0 -7 l19 0 l8 10 ZM138 70 l-20 0 l0 -38 l20 0 l0 38 Z" /><glyph glyph-name="" unicode="&#x5c31;" d="M61 211 q33 2 38 -17 q1 -8 -6 -14 l36 0 l0 -18 l-89 0 l0 18 l33 0 q-2 2 -4 7 q-1 15 -9 22 l1 2 ZM142 210 l26 0 l0 -53 l41 0 l0 -19 l-41 0 l0 -22 l22 0 l0 -106 q0 -3 1 -3 q1 1 2 3 q1 4 4 11 q4 13 8 24 l3 -1 q-8 -29 2 -35 q4 -2 3 -4 q-7 -35 -29 -32 q-19 1 -20 20 l0 62 q-9 -48 -50 -81 l-2 1 q28 43 30 121 l0 42 l-15 0 l0 18 l15 0 l0 54 ZM174 205 q31 -8 33 -26 q2 -12 -9 -16 q-10 -3 -14 9 q-3 20 -12 32 l2 1 ZM93 127 l-20 0 l0 -29 l20 0 l0 29 ZM98 56 q30 -10 32 -29 q1 -14 -9 -18 q-12 -3 -13 9 q-2 21 -10 33 l0 -58 q5 -18 -27 -20 q-5 0 -5 4 q-2 15 -14 18 l0 3 q24 -2 20 2 l0 69 l26 0 l0 -13 ZM46 55 l25 0 q-5 -48 -33 -72 l-1 1 q7 25 9 65 q0 4 0 6 ZM127 148 l-7 -10 l0 -65 l-27 0 l0 7 l-20 0 l0 -7 l-27 0 l0 78 l27 0 l0 -6 l19 0 l6 10 l29 -7 Z" /><glyph glyph-name="" unicode="&#x5c5e;" d="M156 98 l0 -14 l17 0 l0 14 l-17 0 ZM129 98 l-16 0 l0 -14 l16 0 l0 14 ZM174 149 q7 -4 19 -11 q9 -4 9 -5 q-19 -7 -46 -8 l0 -12 l16 0 l7 11 l26 -8 l-7 -12 l0 -40 l-25 0 l0 5 l-17 0 l0 -17 l22 0 l7 11 l30 -10 l-7 -11 l0 -53 q1 -17 -36 -18 q-7 -1 -7 4 q1 12 -22 16 l0 3 q43 -2 38 4 l0 38 l-25 0 l0 -13 q2 0 5 0 q0 1 -1 2 q-1 3 -2 4 l2 1 q17 -10 18 -22 q2 -8 -6 -9 q-6 -1 -8 5 q0 2 -1 6 q0 4 -1 6 q-16 -10 -47 -21 q0 -5 -4 24 q5 0 18 1 l0 16 l-23 0 l0 -65 l-26 0 l0 86 l26 0 l0 -5 l23 0 l0 17 l-16 0 l0 -6 l-25 0 l0 57 l25 0 l0 -7 l17 0 l0 12 q-26 1 -44 5 l0 3 q58 5 88 16 ZM180 210 l30 -9 l-8 -9 l0 -42 l-28 0 l0 3 l-94 0 q0 -81 -7 -107 q-5 -27 -32 -56 l-1 2 q12 24 11 122 l0 95 l29 0 l0 -9 l93 0 l7 10 ZM174 170 l0 14 l-94 0 l0 -14 l94 0 Z" /><glyph glyph-name="" unicode="&#x5dcd;" d="M92 151 l31 -15 q-8 -3 -21 -7 q-2 -1 -3 -1 l0 -10 l24 0 l0 -17 l-24 0 l0 -6 q17 0 23 -10 q5 -20 -11 -16 q-2 1 -5 7 q-3 7 -7 10 l0 -20 l-25 0 l0 21 q-6 -19 -29 -29 l-2 3 q10 16 12 35 l19 0 l0 5 l-28 0 l0 17 l28 0 l0 8 q-13 0 -28 3 l0 3 q34 10 46 19 ZM159 108 l-11 0 l0 -11 l11 0 q0 5 0 11 ZM211 19 q0 -5 -4 -8 q-4 -2 -5 3 q-1 2 -1 3 q-3 -3 -13 -9 q-3 8 -4 12 q5 5 6 24 l14 0 q0 -4 -3 -8 q9 -9 10 -17 ZM95 31 l-14 0 q-3 -6 -9 -12 q-2 -3 -3 -4 q2 0 8 -1 q6 -1 8 -2 q4 6 8 15 q1 3 2 4 ZM148 210 l0 -37 l32 0 l0 30 l29 0 l0 -53 l-29 0 l0 7 l-94 0 l-8 -10 l-28 10 l8 9 l0 38 l29 0 l0 -31 l32 0 l0 37 l29 0 ZM214 23 l4 -1 q-6 -20 2 -25 q2 -3 1 -5 q-9 -17 -22 -18 q-39 -4 -36 23 l0 25 q-16 -28 -57 -49 l-2 3 q39 35 49 78 l-5 0 l0 -7 l-19 0 q-6 -6 -7 -7 q-6 -20 -17 -34 q5 -4 6 -6 q4 -8 0 -14 q-6 -5 -14 -1 q-4 2 -8 6 q-18 -12 -46 -17 l-1 3 q18 10 32 23 q-1 0 -4 2 q-13 5 -20 7 q1 2 3 8 q4 8 6 14 l-14 0 l0 16 l19 0 q0 1 1 3 q2 8 2 11 l26 0 q0 -2 -2 -7 q-1 -5 -2 -7 l11 0 l7 9 l20 -7 l0 81 l22 0 l0 19 l32 0 q-6 -15 -21 -25 l26 0 l7 11 l25 -8 l-8 -10 l0 -69 l-22 0 l0 6 l-13 0 q0 -3 -3 -9 l12 0 l0 -45 q-1 -4 13 -3 q5 -2 17 26 ZM180 97 l8 0 l0 11 l-8 0 q0 -7 0 -11 ZM156 70 q1 4 2 11 l-10 0 l0 -11 l8 0 ZM178 70 l10 0 l0 11 l-9 0 q0 -2 -1 -7 q0 -3 0 -4 ZM200 33 q-4 -8 -8 -12 q2 0 7 1 q2 0 2 0 q0 6 -1 11 Z" /><glyph glyph-name="" unicode="&#x5df4;" d="M175 208 l32 -8 l-8 -11 l0 -105 l-30 0 l0 15 l-87 0 l0 -79 q-8 -20 45 -19 q32 -1 42 8 q9 6 27 49 l3 -1 q-6 -27 -2 -36 q2 -5 5 -8 q3 -2 1 -7 q-9 -33 -75 -32 q-83 -5 -75 43 l0 191 l30 0 l0 -11 l85 0 l7 11 ZM113 179 l-30 0 l0 -62 l30 0 l0 62 ZM139 117 l30 0 l0 62 l-30 0 l0 -62 Z" /><glyph glyph-name="" unicode="&#x5e74;" d="M74 211 l37 0 q-6 -16 -7 -19 l112 0 l0 -18 l-59 0 l0 -38 l52 0 l0 -18 l-52 0 l0 -59 l63 0 l0 -18 l-63 0 l0 -70 l-30 0 l0 70 l-79 0 l0 18 l23 0 l0 82 l29 0 l0 -5 l27 0 l0 38 l-33 0 q-17 -21 -44 -38 l-2 3 q17 25 26 72 ZM99 118 l0 -59 l28 0 l0 59 l-28 0 Z" /><glyph glyph-name="" unicode="&#x5e7f;" d="M119 209 q36 -1 40 -24 q2 -12 -11 -20 l70 0 l0 -18 l-129 0 l0 -48 q1 -61 -7 -82 q-7 -23 -36 -45 l-2 2 q10 17 12 38 q3 19 3 74 l0 91 l30 0 l0 -12 l46 0 q0 0 -2 2 q-4 4 -5 6 q-1 2 -2 10 q-2 18 -8 25 l1 1 Z" /><glyph glyph-name="" unicode="&#x5e97;" d="M130 156 l31 0 l0 -26 l55 0 l0 -19 l-55 0 l0 -35 l19 0 l9 11 l28 -12 l-8 -12 l0 -91 l-29 0 l0 14 l-67 0 l0 -13 l-29 0 l0 111 l29 0 l0 -8 l17 0 l0 80 ZM180 57 l-67 0 l0 -54 l67 0 l0 54 ZM156 200 q4 -9 -1 -17 l63 0 l0 -16 l-137 0 l0 -52 q2 -100 -38 -141 l-2 2 q12 26 11 119 l0 99 l29 0 l0 -11 l47 0 q-3 3 -4 8 q-2 10 -8 18 l1 2 q33 3 39 -11 Z" /><glyph glyph-name="" unicode="&#x5e9a;" d="M117 212 q30 -1 36 -13 q7 -11 -4 -21 l67 0 l0 -18 l-133 0 l0 -56 q1 -63 -7 -82 q-6 -22 -33 -46 l-2 2 q9 15 11 39 q3 22 3 84 l0 87 l28 0 l0 -10 l47 0 q-4 2 -6 11 q-2 12 -8 21 l1 2 ZM123 154 l28 0 l0 -15 l21 0 l7 9 l30 -7 l-8 -10 l0 -26 l14 0 l0 -19 l-14 0 l0 -43 l-29 0 l0 7 l-17 0 q23 -35 56 -50 q3 0 3 0 q0 -1 -3 -2 q-15 -5 -12 -24 q1 -3 0 -4 q-1 -1 -3 1 q-43 21 -50 68 q-12 -45 -77 -65 l-1 2 q41 26 52 74 l-30 0 l0 19 l32 0 q1 3 1 9 l0 8 l-36 0 l0 19 l36 0 l0 16 l-32 0 l0 18 l32 0 l0 15 ZM151 121 l0 -16 l21 0 l0 16 l-21 0 ZM151 69 l21 0 l0 17 l-21 0 l0 -5 q0 -8 0 -12 Z" /><glyph glyph-name="" unicode="&#x5f00;" d="M81 188 l-33 0 l0 18 l161 0 l0 -18 l-33 0 l0 -63 l38 0 l0 -18 l-38 0 l0 -135 l-29 0 l0 135 l-37 0 q5 -102 -66 -136 l-1 2 q39 38 38 134 l-40 0 l0 18 l40 0 l0 63 ZM147 188 l-37 0 l0 -63 l37 0 l0 63 Z" /><glyph glyph-name="" unicode="&#x5f52;" d="M94 212 l27 0 l0 -146 q2 -59 -61 -95 l-3 3 q34 32 37 91 l0 147 ZM182 208 l33 -8 l-9 -11 l0 -217 l-31 0 l0 17 l-52 0 l0 17 l52 0 l0 88 l-44 0 l0 19 l44 0 l0 65 l-45 0 l0 19 l45 0 l7 11 ZM47 190 l30 0 l0 -163 l-30 0 l0 163 Z" /><glyph glyph-name="" unicode="&#x5f85;" d="M141 210 l29 0 l0 -22 l38 0 l0 -18 l-38 0 l0 -34 l47 0 l0 -18 l-115 0 l0 18 l39 0 l0 34 l-35 0 l0 18 l35 0 l0 22 ZM175 114 l29 0 l0 -25 l13 0 l0 -18 l-13 0 l0 -76 q2 -24 -36 -23 q-7 -1 -7 3 q-4 17 -26 19 l0 4 q31 -1 35 0 q6 0 5 2 l0 71 l-76 0 l0 18 l76 0 l0 25 ZM121 64 q36 -18 38 -38 q2 -13 -7 -17 q-10 -4 -16 6 q-2 4 -4 14 q-5 21 -13 33 l2 2 ZM69 211 l35 0 q-15 -35 -60 -60 l-1 2 q17 25 26 58 ZM73 163 l33 0 q-9 -25 -28 -42 l14 0 l0 -150 l-30 0 l0 138 q-2 -2 -13 -8 q-4 -2 -5 -3 l-1 2 q20 28 30 63 Z" /><glyph glyph-name="" unicode="&#x5feb;" d="M166 210 l0 -31 l12 0 l7 11 l32 -8 l-8 -11 l0 -74 l12 0 l0 -18 l-47 0 q11 -41 47 -76 q2 -1 2 -2 q0 -1 -2 -1 q-11 -6 -5 -25 q1 -3 0 -4 q-1 -1 -3 1 q-47 28 -45 107 l-3 0 q0 -57 -60 -107 l-2 2 q30 44 33 105 l-33 0 l0 18 l33 0 q1 13 1 26 l0 38 l-14 0 l0 18 l14 0 l0 31 l29 0 ZM71 210 l29 0 l0 -29 q26 -14 27 -37 q0 -12 -10 -14 q-11 -1 -12 11 q-1 19 -5 31 l0 -202 l-29 0 l0 240 ZM55 177 l3 0 q19 -39 6 -70 q-5 -11 -15 -10 q-9 2 -8 14 q1 5 4 15 q9 24 10 51 ZM180 97 l0 64 l-14 0 l0 -64 l14 0 Z" /><glyph glyph-name="" unicode="&#x601d;" d="M59 211 l29 0 l0 -13 l80 0 l8 13 l33 -9 l-10 -14 l0 -115 l-29 0 l0 14 l-82 0 l0 -14 l-29 0 l0 138 ZM88 180 l0 -28 l26 0 l0 28 l-26 0 ZM144 180 l0 -28 l26 0 l0 28 l-26 0 ZM88 134 l0 -29 l26 0 l0 29 l-26 0 ZM144 134 l0 -29 l26 0 l0 29 l-26 0 ZM109 83 q38 -15 44 -39 q2 -14 -9 -19 q-12 -3 -17 9 q-1 2 -2 8 q-6 23 -18 39 l2 2 ZM55 61 l2 1 q21 -43 9 -71 q-7 -13 -19 -10 q-11 6 -7 19 q1 3 3 10 q12 31 12 51 ZM214 1 q0 -13 -13 -16 q-11 -1 -13 13 q-1 4 -2 14 q-1 24 -10 49 l2 2 q35 -31 36 -62 ZM79 63 l29 0 l0 -52 q-1 -11 18 -11 q18 0 24 7 q6 7 20 44 l2 -1 q-1 -14 -3 -22 q-1 -11 8 -18 q4 -3 3 -6 q-8 -34 -54 -31 q-49 -2 -47 38 l0 52 Z" /><glyph glyph-name="" unicode="&#x606d;" d="M149 169 l-37 0 l0 -36 l37 0 l0 36 ZM111 88 l29 0 l0 -87 q4 -29 -31 -30 q-8 -2 -7 5 q-1 15 -21 18 l0 5 q37 -3 30 4 l0 85 ZM39 63 q35 30 48 52 l-44 0 l0 18 l41 0 l0 36 l-30 0 l0 19 l30 0 l0 24 l28 0 l0 -24 l37 0 l0 24 l28 0 l0 -24 l28 0 l0 -19 l-28 0 l0 -36 l39 0 l0 -18 l-57 0 q18 -17 57 -20 q3 0 3 -1 q0 -2 -2 -4 q-12 -11 -5 -22 q3 -3 3 -4 q-1 -2 -4 -2 q-50 7 -71 53 l-17 0 q-24 -43 -82 -55 l-2 3 ZM144 63 q28 -18 27 -40 q0 -13 -9 -16 q-9 -1 -12 11 q0 1 0 6 q-1 20 -8 37 l2 2 ZM88 70 l5 -1 q2 -48 -23 -64 q-13 -5 -21 2 q-7 9 2 20 q4 5 12 12 q17 15 25 31 ZM167 70 q44 -20 44 -48 q0 -15 -11 -18 q-11 -2 -15 12 q-6 30 -21 52 l3 2 Z" /><glyph glyph-name="" unicode="&#x60a6;" d="M180 211 l30 0 q-11 -37 -44 -57 l-2 1 q13 29 16 56 ZM115 211 q31 -7 41 -27 q3 -13 -8 -20 q-11 -4 -16 8 q-1 2 -3 7 q-5 18 -15 31 l1 1 ZM179 135 l-34 0 l0 -45 l34 0 l0 45 ZM130 57 l28 0 q-5 -65 -54 -85 l-2 1 q26 27 28 84 ZM167 57 l26 0 l0 -52 q1 -4 5 -1 q1 1 3 6 q6 14 9 23 l3 -1 q-1 -5 -3 -13 q-1 -4 -1 -6 q-3 -10 5 -15 q3 -2 2 -4 q-8 -23 -27 -22 q-21 2 -22 26 l0 59 ZM116 160 l29 0 l0 -8 l34 0 l6 11 l29 -6 l-5 -10 l0 -83 l-30 0 l0 9 l-34 0 l0 -9 l-29 0 l0 79 q-2 -10 -10 -10 q-8 1 -9 11 q0 16 -3 23 l0 -196 l-28 0 l0 240 l28 0 l0 -32 q17 -11 22 -29 l0 10 ZM48 180 l2 1 q20 -36 12 -65 q-5 -11 -15 -9 q-10 3 -8 15 q1 3 3 11 q8 25 6 47 Z" /><glyph glyph-name="" unicode="&#x60e0;" d="M113 212 l31 0 l0 -13 l65 0 l0 -19 l-65 0 l0 -15 l25 0 l8 11 l28 -9 l-8 -12 l0 -70 l-28 0 l0 5 l-25 0 l0 -16 q7 0 17 2 q-1 2 -6 6 l1 2 q32 -6 44 -18 q8 -9 2 -19 q-8 -11 -17 -4 q-4 4 -7 11 q-5 8 -9 14 q-22 -22 -118 -25 q-1 14 -5 30 q36 -3 67 -1 l0 18 l-25 0 l0 -5 l-28 0 l0 87 l28 0 l0 -7 l25 0 l0 15 l-69 0 l0 19 l69 0 l0 13 ZM113 148 l-25 0 l0 -12 l25 0 l0 12 ZM169 148 l-25 0 l0 -12 l25 0 l0 12 ZM113 119 l-25 0 l0 -11 l25 0 l0 11 ZM169 119 l-25 0 l0 -11 l25 0 l0 11 ZM109 46 q29 -3 38 -15 q7 -10 1 -19 q-9 -10 -18 -3 q-2 2 -4 8 q-6 16 -17 27 l0 2 ZM81 37 l28 0 l0 -31 q-1 -9 17 -9 q16 -1 22 4 q5 4 22 31 l2 -1 q-11 -25 1 -33 q4 -2 2 -5 q-11 -25 -50 -24 q-46 -1 -44 31 l0 37 ZM57 38 l1 0 q15 -22 13 -44 q-3 -16 -15 -18 q-14 -1 -14 14 q0 4 4 10 q10 19 11 38 ZM174 43 q33 -19 38 -42 q4 -14 -5 -21 q-13 -7 -19 6 q-2 4 -4 16 q-5 24 -12 39 l2 2 Z" /><glyph glyph-name="" unicode="&#x610f;" d="M144 187 l63 0 l0 -17 l-37 0 l16 -6 q-2 -2 -9 -10 q-7 -8 -10 -11 l48 0 l0 -17 l-170 0 l0 17 l48 0 q-3 1 -6 9 q-3 11 -8 16 l2 2 l-24 0 l0 17 l62 0 q-2 1 -5 8 q-4 10 -9 13 l1 2 q30 6 40 -6 q7 -10 -2 -17 ZM155 170 l-63 0 q34 -6 22 -27 l30 0 q5 8 11 27 ZM173 124 l30 -9 l-7 -10 l0 -66 l-29 0 l0 5 l-68 0 l0 -6 l-30 0 l0 82 l30 0 l0 -6 l67 0 l7 10 ZM99 98 l0 -11 l68 0 l0 11 l-68 0 ZM167 71 l-68 0 l0 -11 l68 0 l0 11 ZM119 41 q26 -2 31 -18 q5 -12 -4 -19 q-10 -4 -17 5 q-1 2 -2 6 q-2 14 -10 24 l2 2 ZM83 34 l28 0 l0 -30 q-4 -12 19 -10 q26 -5 37 32 l3 -2 q-4 -19 7 -26 q5 -4 3 -7 q-4 -23 -51 -20 q-53 -4 -46 27 l0 36 ZM68 31 l2 0 q10 -28 5 -40 q-6 -14 -19 -16 q-12 0 -12 14 q0 5 8 13 q13 14 16 29 ZM180 31 q33 -16 36 -33 q2 -16 -8 -22 q-13 -4 -18 9 q-1 3 -2 10 q-2 15 -10 34 l2 2 Z" /><glyph glyph-name="" unicode="&#x6240;" d="M109 213 l22 -21 q-21 -10 -51 -5 l0 -42 l14 0 l7 10 l28 -8 l-7 -12 l0 -88 l-29 0 l0 13 l-13 0 q-4 -52 -38 -84 l-2 2 q14 28 13 120 l0 111 l27 0 l0 -14 q14 6 29 18 ZM191 213 l25 -20 q-22 -11 -54 -5 l0 -43 l54 0 l0 -19 l-13 0 l0 -156 l-29 0 l0 156 l-12 0 l0 -10 q0 -61 -10 -88 q-9 -28 -39 -51 l-3 1 q13 21 18 53 q5 31 5 97 l0 81 l29 0 l0 -11 q17 6 29 15 ZM93 77 l0 50 l-13 0 l0 -50 l13 0 Z" /><glyph glyph-name="" unicode="&#x624b;" d="M166 213 l39 -23 q-35 -11 -60 -12 l0 -35 l58 0 l0 -18 l-58 0 l0 -37 l71 0 l0 -19 l-71 0 l0 -69 q1 -27 -32 -29 q-1 0 -3 0 q-10 -2 -9 8 q-5 13 -30 15 l0 5 q53 -4 45 8 l0 62 l-77 0 l0 19 l77 0 l0 37 l-64 0 l0 18 l64 0 l0 34 q-31 0 -76 8 l0 5 q86 8 126 23 Z" /><glyph glyph-name="" unicode="&#x624d;" d="M151 210 l30 0 l0 -29 l36 0 l0 -19 l-36 0 l0 -159 q3 -32 -40 -31 q-10 -3 -9 9 q-4 15 -23 18 l0 1 q51 -2 42 8 l0 121 q-29 -96 -109 -126 l-1 2 q63 55 79 143 l31 0 l0 14 l-107 0 l0 19 l107 0 l0 29 Z" /><glyph glyph-name="" unicode="&#x6253;" d="M215 198 l0 -17 l-34 0 l0 -184 q7 -26 -39 -26 q-10 -3 -9 9 q1 15 -20 17 l0 3 q47 -3 38 9 l0 172 l-39 0 l0 17 l103 0 ZM67 211 l28 0 l0 -39 l19 0 l0 -18 l-19 0 l0 -38 q15 8 32 20 l1 -2 q-18 -27 -33 -42 l0 -97 q3 -25 -30 -25 q-8 -1 -7 8 q0 12 -17 18 l0 2 q31 -2 26 5 l0 67 q-2 -1 -8 -4 q-9 -5 -13 -7 q-2 22 -5 33 q14 5 26 10 l0 52 l-24 0 l0 18 l24 0 l0 39 Z" /><glyph glyph-name="" unicode="&#x6539;" d="M123 96 l-28 0 l0 13 l-18 0 l0 -75 q25 16 47 35 l3 -2 q-19 -43 -70 -88 q-8 21 -16 33 q1 1 3 2 q4 2 5 3 l0 118 l28 0 l0 -9 l18 0 l0 45 l-49 0 l0 17 l48 0 l8 13 l29 -9 l-8 -11 l0 -71 q17 37 19 101 l33 0 q-3 -29 -6 -36 l46 0 l0 -17 l-51 0 q-5 -12 -15 -26 q4 -34 14 -58 q10 31 12 74 l31 0 q-6 -66 -26 -104 q13 -16 36 -33 q3 -2 0 -5 q-10 -9 -4 -27 q1 -3 0 -4 q-1 -2 -4 0 q-29 18 -46 44 q-24 -27 -69 -48 l-3 4 q46 39 60 70 q-9 27 -11 74 q-1 -1 -4 -3 q-6 -6 -10 -10 l-2 2 l0 -12 Z" /><glyph glyph-name="" unicode="&#x653e;" d="M74 211 q23 -5 32 -16 q10 -16 -2 -25 q-17 -6 -20 8 q0 0 0 1 q-5 20 -12 31 l2 1 ZM137 163 l0 -17 l-47 0 l0 -24 l12 0 l7 10 l27 -6 l-6 -8 l0 -116 q1 -24 -32 -26 q-6 -1 -6 5 q0 15 -18 18 l0 1 q31 -1 30 7 l0 98 l-14 0 l0 -42 q-2 -54 -46 -87 l-1 1 q21 36 21 87 l0 82 l-22 0 l0 17 l95 0 ZM133 100 q17 48 16 110 l31 0 q-1 -23 -5 -38 l40 0 l0 -17 l-45 0 q-8 -23 -23 -42 l6 0 q5 -30 14 -51 q5 25 8 75 l28 0 q-3 -72 -19 -103 q9 -13 31 -29 q3 -2 -1 -3 q-13 -6 -8 -27 q1 -3 0 -4 q-1 0 -3 2 q-22 14 -35 36 q-15 -15 -44 -34 l-1 2 q26 29 35 53 q-10 29 -13 81 q-3 -4 -10 -13 l-2 2 Z" /><glyph glyph-name="" unicode="&#x65b0;" d="M98 183 l28 0 l0 -17 l-83 0 l0 17 l34 0 q-2 2 -4 9 q-3 11 -8 16 l1 2 q46 3 32 -27 ZM56 164 q26 -9 27 -27 q-2 -12 -11 -15 q-10 -2 -12 9 q0 2 -1 6 q0 15 -5 25 l2 2 ZM93 161 l30 0 q-9 -23 -28 -42 l33 0 l0 -17 l-30 0 l0 -19 l28 0 l0 -17 l-28 0 l0 -13 q29 -10 29 -30 q0 -13 -10 -16 q-10 -1 -13 10 q-1 3 0 9 q1 14 -6 22 l0 -53 q2 -24 -26 -24 q-6 -1 -7 5 q0 15 -14 16 l0 3 q24 -2 20 5 l0 33 q-15 -29 -29 -40 l-2 1 q7 24 11 59 l20 0 l0 13 l-27 0 l0 17 l27 0 l0 19 l-30 0 l0 17 l43 0 q1 2 2 6 q6 22 7 36 ZM136 206 l27 0 l0 -11 q18 6 33 16 l21 -26 q-22 -4 -54 0 l0 -55 l50 0 l0 -18 l-13 0 l0 -142 l-27 0 l0 142 l-10 0 l0 -31 q2 -71 -47 -108 l-2 1 q14 22 18 48 q4 26 4 99 l0 85 Z" /><glyph glyph-name="" unicode="&#x65b9;" d="M112 212 q39 1 43 -20 q2 -15 -10 -21 q-15 -4 -20 8 q-1 2 -2 7 q-2 13 -12 24 l1 2 ZM219 167 l0 -18 l-91 0 q0 -25 0 -33 l44 0 l8 11 l29 -10 l-9 -12 l0 -88 q6 -44 -45 -46 q-9 -2 -8 6 q0 16 -23 21 l0 2 q38 -1 41 1 q7 1 6 19 l0 77 l-44 0 q-3 -87 -76 -126 l-2 2 q53 48 49 176 l-50 0 l0 18 l171 0 Z" /><glyph glyph-name="" unicode="&#x660e;" d="M189 211 l29 -10 l-9 -13 l0 -196 q3 -18 -37 -20 q-5 -1 -6 6 q3 17 -25 21 l0 1 q46 0 40 6 l0 57 l-22 0 q1 -59 -68 -91 l-1 3 q45 41 42 122 l0 113 l28 0 l0 -12 l20 0 l9 13 ZM77 208 l0 -11 l15 0 l9 13 l27 -8 l-8 -10 l0 -159 l-27 0 l0 18 l-16 0 l0 -19 l-27 0 l0 176 l27 0 ZM160 180 l0 -41 l21 0 l0 41 l-21 0 ZM93 179 l-16 0 l0 -46 l16 0 l0 46 ZM93 115 l-16 0 l0 -46 l16 0 l0 46 ZM159 80 l22 0 l0 42 l-21 0 l0 -19 q0 -17 -1 -23 Z" /><glyph glyph-name="" unicode="&#x6625;" d="M113 210 l32 0 q0 -8 0 -17 l66 0 l0 -17 l-67 0 q-2 -8 -2 -16 l62 0 l0 -17 l-66 0 q-3 -12 -4 -17 l81 0 l0 -18 l-55 0 q20 -20 54 -24 q3 0 3 -1 q0 -1 -3 -3 q-12 -9 -6 -24 q1 -2 0 -3 q0 -1 -3 0 q-11 3 -14 5 l-2 -2 l0 -85 l-28 0 l0 10 l-63 0 l0 -11 l-28 0 l0 90 q-8 -5 -30 -13 l-1 3 q38 24 55 58 l-52 0 l0 18 l60 0 q0 1 2 5 q2 8 3 12 l-50 0 l0 17 l53 0 q2 7 2 16 l-65 0 l0 17 l66 0 q0 9 0 17 ZM161 50 l-63 0 l0 -18 l63 0 l0 18 ZM98 15 l0 -17 l63 0 l0 17 l-63 0 ZM125 108 q-10 -20 -32 -35 l5 0 l0 -6 l62 0 l7 7 q-15 14 -23 34 l-19 0 Z" /><glyph glyph-name="" unicode="&#x666e;" d="M107 190 q1 -9 -4 -13 l37 0 q11 15 16 34 l42 0 q-14 -24 -41 -34 l55 0 l0 -18 l-50 0 l0 -43 q10 13 17 34 l36 0 q-13 -27 -53 -41 l0 -1 l52 0 l0 -18 l-174 0 l0 18 l52 0 l0 51 l-47 0 l0 18 l39 0 q-1 0 -2 2 q-1 1 -2 2 q-1 2 -3 5 q-5 12 -19 23 l2 3 q42 2 47 -22 ZM135 159 l-16 0 l0 -51 l16 0 l0 51 ZM50 155 q31 -7 36 -27 q3 -12 -6 -17 q-8 -4 -14 6 q-2 3 -5 11 q-5 18 -13 25 l2 2 ZM169 83 l32 -8 l-9 -11 l0 -93 l-30 0 l0 14 l-70 0 l0 -15 l-30 0 l0 111 l30 0 l0 -9 l69 0 l8 11 ZM92 56 l0 -20 l70 0 l0 20 l-70 0 ZM162 20 l-70 0 l0 -20 l70 0 l0 20 Z" /><glyph glyph-name="" unicode="&#x6696;" d="M185 212 l33 -20 q-47 -16 -112 -1 l0 3 q45 7 79 18 ZM87 190 l26 -7 l-8 -9 l0 -167 l-24 0 l0 12 l-10 0 l0 -12 l-25 0 l1 183 l24 0 l0 -11 l9 0 l7 11 ZM118 182 q27 -14 26 -33 q-1 -14 -12 -15 q-11 0 -11 14 q0 3 0 9 q0 14 -5 24 l2 1 ZM147 180 q26 -10 25 -28 q-1 -12 -10 -14 q-9 -1 -11 11 q0 2 -1 7 q0 15 -4 23 l1 1 ZM185 180 l28 -4 q-7 -29 -30 -46 l29 0 l0 -17 l-50 0 q0 -8 -2 -16 l56 0 l0 -18 l-59 0 q0 -2 -1 -7 q-1 -5 -2 -7 l21 0 l8 10 l27 -10 l-9 -9 q-8 -29 -19 -45 q16 -9 33 -11 q2 0 2 -1 q0 -2 -2 -3 q-8 -4 -8 -19 q1 -4 0 -4 q0 -1 -3 0 q-23 5 -39 23 q-16 -15 -53 -24 l-1 1 q25 18 43 38 q-3 3 -10 24 q-17 -39 -51 -62 l-2 2 q31 38 38 104 l-17 0 l0 18 l19 0 q0 7 1 16 l-17 0 l0 17 l57 0 q9 20 13 50 ZM81 163 l-10 0 l0 -55 l10 0 l0 55 ZM81 92 l-10 0 l0 -57 l10 0 l0 57 ZM173 50 l-24 0 q0 -1 -1 -3 q6 -11 15 -21 q5 5 10 24 Z" /><glyph glyph-name="" unicode="&#x66f4;" d="M45 206 l171 0 l0 -18 l-71 0 l0 -30 l29 0 l7 11 l31 -8 l-8 -10 l0 -90 l-31 0 l0 7 l-29 0 q-2 -27 -14 -47 q35 -19 85 -19 q5 0 1 -2 q-13 -9 -8 -24 q2 -6 -2 -5 q-56 7 -92 33 q-27 -22 -69 -33 l-1 3 q31 18 53 48 q-10 14 -14 34 l4 1 q9 -12 19 -20 q6 12 9 31 l-28 0 l0 -8 l-31 0 l0 107 l31 0 l0 -9 l28 0 l0 30 l-70 0 l0 18 ZM145 141 l0 -19 l28 0 l0 19 l-28 0 ZM115 141 l-28 0 l0 -19 l28 0 l0 19 ZM115 104 l-28 0 l0 -19 l28 0 l0 19 ZM145 85 l28 0 l0 19 l-28 0 l0 -19 Z" /><glyph glyph-name="" unicode="&#x6700;" d="M173 214 l31 -7 l-8 -10 l0 -70 l-28 0 l0 9 l-74 0 l0 -9 l-29 0 l0 85 l29 0 l0 -9 l72 0 l7 11 ZM94 187 l0 -9 l74 0 l0 9 l-74 0 ZM168 162 l-74 0 l0 -10 l74 0 l0 10 ZM219 121 l0 -17 l-81 0 l0 -69 q5 2 8 3 l1 -2 q-4 -5 -9 -9 l0 -58 l-26 0 l0 39 q-23 -11 -56 -19 q-2 9 -7 24 q1 -2 -1 4 q9 1 6 1 q10 1 11 1 l0 85 l-20 0 l0 17 l174 0 ZM112 104 l-21 0 l0 -14 l21 0 l0 14 ZM188 100 l28 -7 l-8 -9 q-6 -40 -18 -64 q11 -11 26 -15 q4 -1 0 -4 q-11 -9 -7 -22 q1 -2 0 -3 q-1 -1 -3 0 q-20 12 -32 24 q-11 -12 -34 -26 l-1 1 q15 19 24 38 q-13 23 -16 61 l-6 0 l0 17 l40 0 l7 9 ZM112 73 l-21 0 l0 -15 l21 0 l0 15 ZM112 41 l-21 0 l0 -17 q5 0 21 5 l0 12 ZM172 39 q4 14 6 35 l-24 0 q6 -19 18 -35 Z" /><glyph glyph-name="" unicode="&#x6709;" d="M99 213 l38 0 q-1 -2 -3 -6 q-2 -6 -8 -15 l88 0 l0 -18 l-99 0 q-13 -17 -24 -26 l9 0 l0 -7 l65 0 l8 12 l29 -10 l-7 -10 l0 -139 q5 -22 -35 -24 q-8 -1 -7 6 q-2 17 -21 20 l0 3 q40 -2 34 5 l0 34 l-66 0 l0 -65 l-29 0 l0 161 q-10 -7 -27 -14 l-2 3 q20 20 38 51 l-38 0 l0 18 l47 0 q3 6 7 14 q2 5 3 7 ZM166 123 l-66 0 l0 -24 l66 0 l0 24 ZM100 81 l0 -26 l66 0 l0 26 l-66 0 Z" /><glyph glyph-name="" unicode="&#x671f;" d="M60 211 l26 0 l0 -22 l16 0 l0 22 l26 0 l0 -22 l8 0 l0 -17 l-8 0 l0 -113 l6 0 l0 -17 l-93 0 l0 17 l19 0 l0 113 l-14 0 l0 17 l14 0 l0 22 ZM86 172 l0 -27 l16 0 l0 27 l-16 0 ZM86 129 l0 -27 l16 0 l0 27 l-16 0 ZM102 85 l-16 0 l0 -26 l16 0 l0 26 ZM100 35 q30 -12 31 -31 q0 -9 -9 -13 q-10 -2 -13 6 q-1 2 -1 6 q-3 18 -9 30 l1 2 ZM63 33 l28 0 q-10 -37 -48 -57 l-1 2 q15 22 21 55 ZM191 210 l27 -8 l-8 -11 l0 -192 q4 -27 -27 -27 q-9 -2 -8 5 q0 14 -21 18 l0 3 q32 -3 30 2 l0 62 l-18 0 q0 -56 -42 -89 l-2 2 q18 32 19 91 l0 145 l26 0 l0 -13 l17 0 l7 12 ZM184 181 l-17 0 l0 -42 l17 0 l0 42 ZM167 79 l17 0 l0 42 l-17 0 l0 -34 q0 -3 0 -8 Z" /><glyph glyph-name="" unicode="&#x672a;" d="M112 212 l32 0 l0 -26 l58 0 l0 -19 l-58 0 l0 -35 l70 0 l0 -19 l-70 0 l0 -143 l-32 0 l0 109 q-14 -62 -68 -96 l-2 1 q33 43 42 113 l28 0 l0 16 l-70 0 l0 19 l70 0 l0 35 l-56 0 l0 19 l56 0 l0 26 ZM148 104 l5 0 q17 -54 54 -81 q0 0 1 -1 q7 -3 -1 -7 q-9 -9 -7 -19 q3 -8 1 -9 q-1 -1 -7 4 q-44 28 -46 113 Z" /><glyph glyph-name="" unicode="&#x672f;" d="M155 209 q30 1 39 -10 q9 -9 4 -19 q-7 -10 -18 -3 q-2 2 -5 7 q-8 14 -21 22 l1 3 ZM149 151 l6 0 q16 -76 57 -126 q4 -3 4 -4 q0 -1 -4 -4 q-10 -10 -8 -22 q2 -9 1 -9 q-1 -1 -7 5 q-47 44 -49 160 ZM146 212 l0 -40 l70 0 l0 -18 l-70 0 l0 -182 l-30 0 l0 158 q-19 -97 -72 -146 l-2 2 q33 68 42 157 l32 0 l0 11 l-71 0 l0 18 l71 0 l0 40 l30 0 Z" /><glyph glyph-name="" unicode="&#x673a;" d="M121 108 l0 100 l28 0 l0 -11 l15 0 l8 12 l31 -7 l-11 -15 l0 -173 q0 -14 16 24 l2 -1 q-8 -28 1 -32 q3 -1 3 -4 q-3 -30 -27 -30 q-22 1 -23 25 l0 183 l-15 0 l0 -76 q0 -55 -10 -81 q-10 -26 -41 -48 l-2 2 q15 24 20 50 q5 25 5 82 ZM66 212 l28 0 l0 -30 l21 0 l0 -17 l-21 0 l0 -34 q21 -13 26 -36 q0 -13 -9 -16 q-10 -1 -11 12 q0 1 0 3 q-1 14 -6 24 l0 -147 l-28 0 l0 81 q-9 -20 -26 -41 l-2 1 q13 33 17 128 l11 0 l0 25 l-25 0 l0 17 l25 0 l0 30 Z" /><glyph glyph-name="" unicode="&#x6765;" d="M109 207 l29 0 l0 -30 l66 0 l0 -21 l-66 0 l0 -56 l7 0 q13 22 20 51 l30 -7 q-14 -31 -41 -44 l56 0 l0 -21 l-72 0 l0 -102 l-29 0 l0 102 l-71 0 l0 21 l71 0 l0 56 l-65 0 l0 21 l65 0 l0 30 ZM69 115 q-1 2 -1 8 q0 15 -8 26 l1 2 q31 -7 34 -29 q1 -15 -10 -19 q-10 -2 -16 12 ZM108 69 q-20 -65 -75 -85 l-2 2 q32 31 45 83 l32 0 ZM146 71 q17 -39 62 -60 q3 -1 3 -3 q-1 -1 -4 -3 q-17 -6 -18 -17 q0 -4 -1 -4 q-1 -1 -4 2 q-34 27 -43 84 l5 1 Z" /><glyph glyph-name="" unicode="&#x6b63;" d="M49 204 l163 0 l0 -19 l-66 0 l0 -65 l54 0 l0 -18 l-54 0 l0 -105 l66 0 l0 -20 l-169 0 l0 20 l20 0 l0 148 l29 0 l0 -148 l22 0 l0 188 l-65 0 l0 19 Z" /><glyph glyph-name="" unicode="&#x6c49;" d="M184 213 l32 -10 l-9 -14 q-8 -87 -38 -134 q20 -29 43 -49 q5 -4 5 -5 q0 -1 -4 -1 q-10 -9 -8 -21 q2 -8 1 -9 q-2 -2 -8 3 q-27 22 -49 56 q-24 -29 -74 -54 l-1 2 q38 36 63 76 q-25 53 -24 122 l5 0 q8 -43 34 -92 q20 47 23 97 l-79 0 l0 19 l78 0 l10 14 ZM46 212 l2 1 q30 -8 41 -25 q8 -14 -1 -23 q-12 -9 -20 3 q-2 3 -5 11 q-8 23 -17 33 ZM44 146 q31 -8 44 -26 q7 -13 -1 -22 q-12 -10 -20 1 q-1 3 -4 9 q-9 22 -21 36 l2 2 ZM90 85 l2 0 q-6 -75 -39 -115 q-4 23 -13 40 q27 30 50 75 Z" /><glyph glyph-name="" unicode="&#x6e21;" d="M147 213 q27 2 34 -12 q4 -11 -6 -20 l45 0 l0 -16 l-98 0 l0 -76 q3 -85 -48 -114 l-1 2 q23 30 22 105 l0 109 l27 0 l0 -10 l34 0 q-4 3 -4 12 q0 12 -7 19 l2 1 ZM136 159 l25 0 l0 -14 l19 0 l0 14 l25 0 l0 -14 l11 0 l0 -17 l-11 0 l0 -42 l-25 0 l0 8 l-19 0 l0 -8 l-25 0 l0 42 l-13 0 l0 17 l13 0 l0 14 ZM180 128 l-19 0 l0 -18 l19 0 l0 18 ZM148 59 q9 -18 16 -26 q12 18 13 26 l-29 0 ZM49 208 q33 -8 37 -21 q6 -15 -6 -22 q-12 -5 -17 10 q-5 19 -16 31 l2 2 ZM81 79 l3 0 q7 -57 -27 -98 q-5 20 -12 35 q20 23 36 63 ZM48 146 q33 -9 36 -24 q4 -14 -7 -20 q-12 -6 -17 11 q-1 14 -14 31 l2 2 ZM217 -1 q3 -1 0 -4 q-15 -5 -9 -22 q1 -3 0 -4 q-1 -2 -3 -1 q-26 10 -42 28 q-24 -18 -57 -23 l-1 3 q20 12 45 37 q-8 14 -11 46 l-12 0 l0 17 l55 0 l7 9 l30 -8 l-8 -9 q-11 -32 -28 -54 q19 -12 34 -15 Z" /><glyph glyph-name="" unicode="&#x6e90;" d="M117 212 l0 -9 l100 0 l0 -18 l-40 0 q-7 -14 -21 -24 l26 0 l7 11 l28 -8 l-8 -10 l0 -80 l-27 0 l0 5 l-30 0 l0 -6 l-27 0 l0 95 l17 0 q3 6 4 17 l-29 0 l0 -89 q3 -88 -47 -124 l-2 2 q23 29 22 114 l0 124 l27 0 ZM152 145 l0 -17 l30 0 l0 17 l-30 0 ZM152 68 l29 0 l0 -76 q4 -20 -33 -21 q-5 -1 -5 5 q0 14 -20 18 l0 3 q34 -4 29 6 l0 65 ZM187 60 q31 -32 31 -63 q-1 -13 -12 -16 q-11 -2 -12 11 q0 3 0 9 q0 27 -9 58 l2 1 ZM121 58 l25 -3 q-10 -51 -47 -72 l-3 1 q21 28 25 74 ZM47 207 q34 -12 38 -32 q1 -11 -8 -16 q-11 -4 -15 5 q-1 3 -3 8 q-3 14 -14 34 l2 1 ZM80 84 l3 -1 q1 -62 -27 -106 q-5 17 -14 36 q17 18 38 71 ZM46 140 q33 -8 37 -31 q0 -11 -9 -16 q-10 -3 -15 6 q-1 2 -2 7 q-2 15 -13 33 l2 1 ZM152 112 l0 -17 l30 0 l0 17 l-30 0 Z" /><glyph glyph-name="" unicode="&#x70ae;" d="M157 127 l-10 0 l0 -35 l10 0 l0 35 ZM123 138 q-2 -2 -8 -8 l-2 2 q14 25 16 79 l27 0 q-1 -11 -4 -20 l33 0 l7 9 l26 -7 l-7 -11 l0 -128 q2 -16 -27 -20 q-5 -1 -6 2 q1 17 -20 18 l0 3 q34 -1 29 5 l0 112 l-40 0 q-1 -1 -2 -4 q-6 -12 -11 -19 l13 0 l0 -6 l8 0 l7 10 l23 -6 l-6 -9 l0 -71 l-22 0 l0 6 l-10 0 l0 -68 q-5 -13 31 -10 q15 -4 30 38 l3 -1 q-9 -33 4 -33 q3 -1 2 -1 q-5 -27 -40 -27 q-59 -6 -54 27 l0 138 ZM67 211 l25 0 l0 -52 q0 -28 0 -39 q5 23 6 58 l21 0 q-4 -54 -27 -75 q-1 -28 -4 -44 q24 -10 31 -30 q4 -13 -5 -19 q-11 -5 -16 7 q-1 3 -2 8 q-2 15 -10 26 q-9 -41 -40 -67 l-1 1 q23 47 22 153 q0 10 0 15 l0 58 ZM50 178 l1 0 q19 -34 11 -70 q-3 -11 -12 -10 q-9 3 -8 14 q0 2 2 7 q9 32 6 59 Z" /><glyph glyph-name="" unicode="&#x70ed;" d="M67 212 l28 0 l0 -28 l13 0 l0 -17 l-13 0 l0 -24 q7 3 18 8 l1 -2 q-8 -13 -19 -24 l0 -60 q2 -19 -32 -21 q-4 1 -5 4 q1 16 -17 18 l0 3 q29 -3 26 5 l0 29 q-6 -4 -18 -9 q-4 -3 -7 -4 q0 6 -1 17 q0 11 -1 17 q14 2 27 8 l0 35 l-25 0 l0 17 l25 0 l0 28 ZM154 212 l0 -28 l12 0 l8 11 l26 -8 l-9 -13 l0 -54 q0 -32 0 -37 q0 -3 1 -3 q2 0 3 3 q5 13 13 37 l3 -1 q-10 -37 3 -38 q3 -1 2 -4 q-9 -33 -28 -33 q-24 -6 -22 69 l0 54 l-12 0 l0 -5 q0 -34 -5 -54 q12 -12 15 -24 q2 -14 -6 -21 q-10 -5 -15 5 q-2 4 -5 13 q-12 -19 -37 -34 l-2 2 q18 25 25 60 q-5 10 -14 22 l1 2 q9 -3 15 -7 q0 3 0 12 q1 12 1 18 l0 11 l-14 0 l0 17 l14 0 l0 28 l27 0 ZM167 40 l2 2 q38 -23 44 -47 q4 -14 -7 -20 q-12 -5 -17 8 q-1 3 -3 10 q-4 22 -19 47 ZM65 38 l3 0 q15 -42 -2 -61 q-9 -10 -20 -3 q-8 7 -2 20 q1 1 4 5 q15 19 17 39 ZM92 34 q22 -20 29 -39 q2 -15 -8 -20 q-13 -4 -16 10 q0 2 0 7 q-1 24 -8 40 l3 2 ZM127 37 q28 -15 36 -40 q1 -11 -7 -16 q-9 -4 -15 4 q-2 3 -5 15 q-4 21 -10 35 l1 2 Z" /><glyph glyph-name="" unicode="&#x71c3;" d="M192 204 q21 -14 22 -24 q2 -10 -5 -15 q-9 -3 -12 6 q-1 3 -1 8 q-2 13 -6 24 l2 1 ZM135 165 l-11 0 q-2 -9 -5 -17 q9 -2 13 -7 q1 6 2 16 q1 5 1 8 ZM178 42 l3 0 q33 -27 34 -50 q1 -12 -8 -17 q-11 -4 -15 5 q-1 2 -1 10 q-4 31 -13 52 ZM155 38 l3 1 q22 -25 23 -43 q1 -11 -6 -14 q-10 -3 -13 6 q-1 1 -1 10 q-2 23 -6 40 ZM115 37 q13 -24 10 -49 q-3 -14 -14 -15 q-12 1 -11 13 q1 3 4 11 q8 20 8 40 l3 0 ZM136 37 q19 -28 18 -46 q-1 -9 -11 -11 q-9 -1 -9 8 q0 2 1 8 q2 19 -2 40 l3 1 ZM42 164 l3 0 q19 -32 13 -61 q-3 -10 -11 -10 q-7 3 -6 14 q0 3 1 9 q3 24 0 48 ZM122 124 q-1 1 -1 5 q-2 8 -5 12 q-3 -8 -9 -18 q-1 -2 -2 -3 q16 -6 18 -16 q1 2 2 6 q1 5 3 12 q-4 -1 -6 2 ZM135 182 l7 11 l22 -7 l-8 -10 q0 -14 -2 -24 l12 0 q0 1 0 11 l0 47 l22 0 l0 -41 q0 -9 0 -17 l25 0 l0 -19 l-25 0 q5 -29 26 -51 q1 -2 -2 -3 q-12 -8 -4 -32 q1 -3 -2 -2 q-20 15 -26 59 q-11 -34 -55 -57 l-1 3 q34 28 40 83 l-13 0 q-8 -62 -59 -87 l-2 2 q16 15 27 40 q-6 -2 -10 3 q-1 2 -1 9 q0 11 -4 16 q-4 -5 -12 -13 l-2 2 q14 23 18 66 q-8 -24 -22 -40 q0 -46 -4 -80 q21 -21 23 -37 q2 -13 -6 -17 q-12 -5 -14 4 q0 2 0 6 q1 26 -5 36 q-4 -30 -34 -63 l-2 1 q12 26 15 53 q4 29 4 92 l0 84 l23 0 l0 -61 q3 10 5 27 q11 0 18 -2 q1 11 1 36 l22 0 q-1 -8 -2 -18 q-1 -6 -1 -10 l8 0 Z" /><glyph glyph-name="" unicode="&#x751f;" d="M127 212 l30 0 l0 -50 l59 0 l0 -17 l-59 0 l0 -60 l48 0 l0 -17 l-48 0 l0 -76 l61 0 l0 -17 l-172 0 l0 17 l81 0 l0 76 l-60 0 l0 17 l60 0 l0 60 l-46 0 q-10 -23 -33 -43 l-2 2 q12 27 14 90 l34 0 q-4 -22 -7 -32 l40 0 l0 50 Z" /><glyph glyph-name="" unicode="&#x754c;" d="M56 212 l30 0 l0 -10 l90 0 l8 11 l31 -9 l-9 -11 l0 -83 l-30 0 l0 9 l-23 0 q23 -27 66 -31 q5 0 5 -2 q-1 -3 -6 -5 q-8 -5 -8 -17 q1 -7 0 -8 q-1 -2 -8 1 q-12 5 -23 13 l0 -99 l-32 0 l0 105 l24 0 q-22 22 -29 43 l-11 0 q-12 -28 -35 -42 l20 0 l0 -33 q6 -58 -68 -71 l-2 3 q41 24 39 63 l0 32 q-18 -8 -45 -13 l-2 4 q46 25 61 57 l-13 0 l0 -9 l-30 0 l0 102 ZM117 184 l-31 0 l0 -15 l31 0 l0 15 ZM176 184 l-30 0 l0 -15 l30 0 l0 15 ZM86 152 l0 -15 l31 0 l0 15 l-31 0 ZM146 152 l0 -15 l30 0 l0 15 l-30 0 Z" /><glyph glyph-name="" unicode="&#x767e;" d="M45 206 l173 0 l0 -18 l-87 0 q-15 -35 -38 -48 l77 0 l9 12 l31 -9 l-11 -13 l0 -159 l-30 0 l0 18 l-78 0 l0 -18 l-29 0 l0 178 l23 0 q6 17 11 39 l-51 0 l0 18 ZM91 121 l0 -46 l78 0 l0 46 l-78 0 ZM91 57 l0 -51 l78 0 l0 51 l-78 0 Z" /><glyph glyph-name="" unicode="&#x7684;" d="M74 211 l33 0 q-10 -31 -30 -46 l17 0 l8 11 l27 -9 l-8 -10 l0 -180 l-27 0 l0 17 l-22 0 l0 -17 l-26 0 l0 194 l23 0 q4 18 5 40 ZM142 211 l31 0 q-4 -23 -12 -43 l14 0 l8 11 l29 -9 l-8 -12 l0 -160 q2 -24 -37 -26 q-8 -2 -8 5 q1 16 -26 21 l0 2 q50 -2 42 9 l0 141 l-24 0 q-11 -15 -25 -27 l-2 1 q14 26 18 87 ZM72 149 l0 -58 l22 0 l0 58 l-22 0 ZM128 118 q35 -23 39 -47 q2 -13 -7 -18 q-13 -5 -17 5 q-1 3 -2 10 q-3 24 -15 49 l2 1 ZM94 75 l-22 0 l0 -66 l22 0 l0 66 Z" /><glyph glyph-name="" unicode="&#x773c;" d="M185 212 l28 -9 l-7 -11 l0 -106 l-29 0 l0 8 l-32 0 l0 -73 q3 2 13 8 q3 1 4 2 q-5 17 -6 53 l5 0 q3 -19 15 -40 q5 11 8 29 l28 -2 q-8 -19 -29 -37 q13 -18 31 -29 q4 -2 0 -4 q-15 -6 -11 -26 q1 -4 0 -4 q0 -1 -3 1 q-29 23 -37 53 q-14 -28 -45 -49 q-3 18 -8 29 q1 1 4 2 q3 1 4 1 l0 203 l27 0 l0 -12 l31 0 l9 13 ZM177 183 l-32 0 l0 -29 l32 0 l0 29 ZM177 138 l-32 0 l0 -27 l32 0 l0 27 ZM83 173 l-14 0 l0 -39 l14 0 l0 39 ZM83 118 l-14 0 l0 -33 l14 0 l0 33 ZM83 67 l-14 0 l0 -40 l14 0 l0 40 ZM107 -2 l-24 0 l0 11 l-14 0 l0 -11 l-24 0 l0 199 l24 0 l0 -8 l11 0 l8 12 l27 -9 l-8 -11 l0 -183 Z" /><glyph glyph-name="" unicode="&#x78a7;" d="M143 212 l32 0 q-5 -15 -25 -27 l27 0 l8 12 l29 -9 l-9 -12 l0 -82 l-26 0 l0 10 l-31 0 l0 -10 l-26 0 l0 100 l19 0 q2 12 2 18 ZM44 204 l74 0 l0 -16 l-24 0 l0 -24 l21 0 l0 -16 l-21 0 l0 -19 q8 1 23 5 l1 -2 q-26 -32 -71 -42 q-1 9 -4 24 q-1 5 -1 7 q2 0 9 1 q11 2 17 3 l0 23 l-23 0 l0 16 l23 0 l0 24 l-24 0 l0 16 ZM179 169 l-31 0 l0 -15 l31 0 l0 15 ZM179 138 l-31 0 l0 -18 l31 0 l0 18 ZM212 87 l0 -16 l-95 0 q-9 -16 -16 -23 l65 0 l8 11 l31 -9 l-9 -12 l0 -66 l-29 0 l0 14 l-68 0 l0 -14 l-29 0 l0 54 q-11 -5 -31 -12 l-2 3 q32 26 48 54 l-46 0 l0 16 l173 0 ZM167 32 l-68 0 l0 -31 l68 0 l0 31 Z" /><glyph glyph-name="" unicode="&#x7965;" d="M176 211 l33 0 q-10 -36 -38 -63 l43 0 l0 -19 l-38 0 l0 -37 l34 0 l0 -18 l-34 0 l0 -35 l39 0 l0 -18 l-39 0 l0 -50 l-29 0 l0 50 l-43 0 l0 18 l43 0 l0 35 l-30 0 l0 18 l30 0 l0 37 l-35 0 l0 19 l47 0 q13 28 17 63 ZM122 211 q32 -18 33 -36 q1 -13 -9 -17 q-12 -4 -16 7 q-1 1 -1 9 q-3 22 -9 35 l2 2 ZM60 211 q32 0 40 -16 q5 -13 -4 -22 q-11 -8 -20 1 q-2 3 -5 11 q-4 15 -12 24 l1 2 ZM84 165 l28 -9 l-8 -8 q-6 -19 -17 -37 l3 0 l0 -3 q20 -7 23 -24 q0 -9 -7 -13 q-9 -3 -12 5 q-1 3 -1 10 q0 10 -3 14 l0 -129 l-26 0 l0 112 q-2 -1 -5 -4 q-2 -2 -15 -12 l-2 2 q18 27 28 68 l-25 0 l0 18 l30 0 l9 10 Z" /><glyph glyph-name="" unicode="&#x7981;" d="M77 212 l28 0 l0 -18 l22 0 l0 -18 l-22 0 l0 -9 q25 -12 26 -21 q0 -20 -16 -13 q-2 3 -4 10 q-2 9 -6 13 l0 -54 l-28 0 l0 40 q-12 -20 -31 -32 l-2 1 q12 19 16 57 l17 0 l0 8 l-34 0 l0 18 l34 0 l0 18 ZM152 212 l28 0 l0 -18 l36 0 l0 -18 l-36 0 l0 -74 l-28 0 l0 31 q-11 -17 -33 -30 l-2 2 q18 25 22 62 l13 0 l0 9 l-20 0 l0 18 l20 0 l0 18 ZM184 171 l6 0 q4 -23 26 -38 q2 -1 0 -2 q-10 -7 -6 -24 q1 -4 -2 -2 q-26 20 -24 66 ZM55 96 l149 0 l0 -18 l-149 0 l0 18 ZM41 63 l174 0 l0 -18 l-72 0 l0 -52 q5 -23 -38 -23 q-3 0 -4 5 q0 18 -20 20 l0 3 q37 -3 31 6 l0 41 l-71 0 l0 18 ZM155 35 q49 -19 54 -39 q3 -12 -6 -18 q-10 -7 -17 2 q-3 5 -7 14 q-10 20 -25 39 l1 2 ZM68 34 l35 0 q-15 -39 -60 -58 l-2 2 q20 22 27 56 Z" /><glyph glyph-name="" unicode="&#x798f;" d="M109 203 l107 0 l0 -18 l-107 0 l0 18 ZM187 177 l28 -8 l-7 -10 l0 -54 l-27 0 l0 8 l-35 0 l0 -8 l-27 0 l0 69 l27 0 l0 -7 l33 0 l8 10 ZM181 151 l-35 0 l0 -22 l35 0 l0 22 ZM188 100 l30 -9 l-6 -10 l0 -109 l-28 0 l0 10 l-44 0 l0 -10 l-28 0 l0 124 l28 0 l0 -6 l41 0 l7 10 ZM184 73 l-10 0 l0 -29 l10 0 l0 29 ZM61 211 q31 -3 37 -17 q5 -12 -3 -20 q-11 -8 -19 0 q-2 3 -4 12 q-4 16 -12 24 l1 1 ZM88 162 l28 -8 l-8 -9 q-10 -23 -19 -35 l2 0 l0 -5 q18 -6 20 -23 q1 -8 -6 -12 q-7 -3 -10 4 q-1 2 -1 9 q-1 10 -3 14 l0 -125 l-28 0 l0 110 q0 0 -1 -1 q-8 -6 -17 -11 l-2 2 q21 30 30 62 l-29 0 l0 18 l35 0 l9 10 ZM150 73 l-10 0 l0 -29 l10 0 l0 29 ZM184 26 l-10 0 l0 -27 l10 0 l0 27 ZM150 26 l-10 0 l0 -27 l10 0 l0 27 Z" /><glyph glyph-name="" unicode="&#x7b80;" d="M67 211 l34 0 q-1 -4 -4 -11 q-2 -6 -3 -8 l39 0 l0 -17 l-49 0 q-1 -3 -4 -4 q26 -2 33 -10 q8 -11 -1 -20 q-7 -7 -16 4 q-10 14 -20 20 q-13 -13 -30 -22 l-2 1 q19 33 23 67 ZM181 110 l-71 0 l0 16 l70 0 l8 11 l30 -8 l-7 -11 l0 -128 q2 -18 -40 -20 q-4 -2 -5 6 q1 15 -23 20 l0 4 q38 -2 38 1 l0 109 ZM148 98 l27 -8 l-7 -10 l0 -74 l-27 0 l0 13 l-20 0 l0 -13 l-27 0 l0 88 l27 0 l0 -7 l18 0 l9 11 ZM148 210 l33 0 q-1 -3 -4 -11 q-2 -5 -2 -7 l41 0 l0 -17 l-51 0 q0 0 -1 -2 q-1 -1 -2 -2 q22 -1 31 -10 q9 -10 0 -20 q-7 -7 -16 3 q-1 1 -3 4 q-8 13 -16 18 q-12 -15 -34 -27 l-2 2 q21 32 26 69 ZM64 140 q25 1 36 -11 q8 -13 -1 -21 q-11 -9 -18 3 q0 1 -1 2 q-7 16 -17 25 l1 2 ZM80 103 l0 -130 l-29 0 l0 130 l29 0 ZM141 60 l0 12 l-20 0 l0 -12 l20 0 ZM141 33 l0 12 l-20 0 l0 -12 l20 0 Z" /><glyph glyph-name="" unicode="&#x7c97;" d="M190 210 l28 -10 l-9 -12 l0 -191 l6 0 l0 -18 l-102 0 l0 18 l18 0 l0 210 l27 0 l0 -10 l24 0 l8 13 ZM181 180 l-23 0 l0 -50 l23 0 l0 50 ZM158 112 l0 -50 l24 0 l0 50 l-24 0 ZM158 45 l0 -48 l24 0 l0 48 l-24 0 ZM51 197 q23 -24 20 -44 q-1 -11 -10 -13 q-9 0 -9 12 q0 1 0 3 q4 19 -3 42 l2 0 ZM100 137 l0 -8 l23 0 l0 -18 l-23 0 l0 -32 q25 -12 24 -32 q0 -11 -9 -14 q-10 -1 -11 10 q-1 11 -4 22 l0 -93 l-26 0 l0 69 q-12 -38 -32 -61 l-1 2 q12 33 16 107 l17 0 l0 22 l-27 0 l0 18 l27 0 l0 81 l26 0 l0 -57 q6 14 8 42 q19 -3 22 -2 q-7 -36 -30 -56 Z" /><glyph glyph-name="" unicode="&#x7ea2;" d="M120 190 l89 0 l0 -18 l-32 0 l0 -178 l33 0 l0 -18 l-110 0 l0 18 l47 0 l0 178 l-27 0 l0 18 ZM64 208 q5 0 17 -1 q12 -1 16 -1 q-12 -39 -39 -73 q4 0 15 1 q9 1 11 1 q5 11 13 34 q20 -3 28 -4 q-20 -59 -54 -93 q1 0 6 2 q24 6 41 12 l1 -2 q-30 -32 -68 -47 q0 3 -4 16 q-3 9 -3 12 q1 1 3 1 q2 1 2 1 q12 11 30 55 q-13 -9 -33 -18 q-1 6 -3 18 q-2 7 -2 9 q2 0 4 1 q12 29 19 76 ZM122 48 l1 -1 q-26 -44 -73 -72 q-5 21 -9 30 q43 18 81 43 Z" /><glyph glyph-name="" unicode="&#x805a;" d="M186 212 l29 -9 l-8 -11 q-7 -35 -18 -53 q13 -10 20 -20 q11 -13 6 -24 q-8 -13 -19 -3 q-4 4 -11 15 q-6 9 -10 14 q-17 -16 -44 -28 l-1 2 q21 18 32 42 q-1 1 -4 5 q-4 5 -25 23 l2 2 q20 -8 34 -15 q6 16 7 31 l-34 0 l0 18 l35 0 l9 11 ZM46 210 l90 0 l0 -18 l-9 0 l0 -64 q1 0 4 2 q5 1 8 2 l1 -2 q-3 -3 -9 -7 q-3 -2 -4 -3 l0 -31 l-26 0 l0 15 q-30 -15 -52 -22 q-2 15 -5 29 q3 1 8 1 q5 1 7 1 l0 79 l-13 0 l0 18 ZM85 192 l0 -13 l16 0 l0 13 l-16 0 ZM101 164 l-16 0 l0 -14 l16 0 l0 14 ZM157 96 l30 -17 q-21 -8 -43 -11 l0 -1 q9 -15 18 -25 q10 11 17 26 l30 -6 q-11 -13 -40 -28 q21 -21 44 -30 q3 -2 1 -4 q0 0 -1 0 q-9 -8 -6 -21 q2 -6 1 -6 q-1 -1 -6 2 q-41 24 -58 75 l0 -81 l-27 0 l0 98 q-22 0 -52 5 l0 3 q43 3 92 21 ZM83 66 l26 -9 q-20 -30 -63 -44 l-1 1 q23 26 38 52 ZM89 30 l26 -11 q-28 -31 -70 -44 l-1 1 q28 24 45 54 ZM101 135 l-16 0 l0 -17 q1 0 5 1 q8 2 11 2 l0 14 Z" /><glyph glyph-name="" unicode="&#x82b1;" d="M76 140 l36 0 q-14 -31 -35 -48 l17 0 l0 -120 l-29 0 l0 109 q-2 -1 -6 -4 q-5 -2 -17 -9 l-2 2 q24 31 36 70 ZM124 139 l30 0 l0 -57 q14 18 23 43 l34 0 q-28 -55 -57 -72 l0 -43 q-3 -12 14 -10 q16 -6 36 37 l2 -1 q-10 -30 3 -38 q3 -3 1 -6 q-11 -24 -43 -21 q-48 -2 -43 30 l0 37 q-12 -4 -27 -9 l-1 3 q8 5 20 15 q5 4 8 6 l0 86 ZM78 212 l30 0 l0 -20 l43 0 l0 19 l31 0 l0 -19 l33 0 l0 -18 l-33 0 l0 -24 l-31 0 l0 24 l-43 0 l0 -24 l-30 0 l0 24 l-33 0 l0 18 l33 0 l0 20 Z" /><glyph glyph-name="" unicode="&#x82cf;" d="M98 146 l31 0 q-1 -12 -1 -22 l17 0 l10 13 l29 -10 l-7 -11 q0 -8 -1 -26 q-4 -87 -6 -96 q1 -24 -39 -23 q-9 -1 -8 8 q-2 14 -25 19 l0 2 q52 -7 44 11 q0 5 1 21 q4 69 3 74 l-19 0 q-3 -103 -83 -135 l-2 3 q50 38 54 132 l-50 0 l0 18 l51 0 q0 2 0 8 q1 9 1 14 ZM177 89 l3 3 q36 -29 36 -55 q0 -17 -9 -22 q-12 -3 -16 11 q0 3 -1 10 q-2 29 -13 53 ZM66 90 q12 -30 4 -51 q-5 -12 -16 -14 q-12 -1 -13 11 q0 7 8 18 q12 17 13 35 l4 1 ZM76 212 l31 0 l0 -23 l40 0 l0 23 l30 0 l0 -23 l35 0 l0 -18 l-35 0 l0 -18 l-30 0 l0 18 l-40 0 l0 -19 l-31 0 l0 19 l-35 0 l0 18 l35 0 l0 23 Z" /><glyph glyph-name="" unicode="&#x82f1;" d="M115 148 l32 0 l0 -17 l20 0 l8 13 l31 -9 l-8 -11 l0 -51 l18 0 l0 -18 l-73 0 q26 -39 68 -53 q5 -1 5 -2 q0 -1 -4 -3 q-9 -6 -9 -20 q0 -9 -8 -5 q-43 17 -60 78 q-17 -50 -90 -79 l-2 3 q49 38 63 81 l-63 0 l0 18 l19 0 l0 67 l29 0 l0 -9 l24 0 l0 17 ZM79 212 l30 0 l0 -20 l45 0 l0 20 l29 0 l0 -20 l34 0 l0 -17 l-34 0 l0 -23 l-29 0 l0 23 l-45 0 l0 -23 l-30 0 l0 23 l-34 0 l0 17 l34 0 l0 20 ZM169 73 l0 40 l-22 0 q0 -1 0 -3 q-2 -25 -5 -37 l27 0 ZM110 73 q3 10 5 37 q0 2 0 3 l-24 0 l0 -40 l19 0 Z" /><glyph glyph-name="" unicode="&#x8981;" d="M47 206 l161 0 l0 -18 l-49 0 l0 -21 l13 0 l7 10 l30 -9 l-8 -9 l0 -67 l-29 0 l0 8 l-90 0 l0 -7 l-29 0 l0 82 l29 0 l0 -8 l13 0 l0 21 l-48 0 l0 18 ZM120 188 l0 -21 l13 0 l0 21 l-13 0 ZM95 149 l-13 0 l0 -31 l13 0 l0 31 ZM104 91 l34 0 q-5 -9 -10 -16 l83 0 l0 -18 l-33 0 q-8 -21 -20 -37 q30 -11 42 -24 q6 -8 1 -17 q-5 -8 -14 -4 q-4 2 -14 8 q-23 14 -34 18 q-34 -23 -97 -26 l0 2 q42 13 71 37 q-23 10 -48 16 q11 12 20 27 l-46 0 l0 18 l57 0 q6 11 8 16 ZM133 149 l-13 0 l0 -31 l13 0 l0 31 ZM172 149 l-13 0 l0 -31 l13 0 l0 31 ZM128 29 q9 11 17 28 l-29 0 q-10 -14 -19 -21 q17 -3 31 -7 Z" /><glyph glyph-name="" unicode="&#x8d22;" d="M51 211 l25 0 l0 -11 l33 0 l8 11 l26 -9 l-8 -10 l0 -24 l41 0 l0 42 l28 0 l0 -42 l12 0 l0 -18 l-12 0 l0 -150 q4 -27 -36 -28 q-5 -2 -5 6 q0 14 -20 18 l0 3 q39 -2 33 5 l0 108 q-8 -68 -44 -105 l-3 1 q19 44 22 121 l25 0 l0 21 l-41 0 l0 -112 l-25 0 l0 145 l-34 0 l0 -145 l-25 0 l0 173 ZM103 157 l0 -76 q0 -27 -6 -49 q30 -13 32 -32 q1 -9 -9 -13 q-10 -2 -13 8 q-5 19 -13 29 q-11 -25 -48 -49 l-2 1 q41 41 38 113 l0 68 l21 0 Z" /><glyph glyph-name="" unicode="&#x8d77;" d="M187 212 l27 -10 l-8 -12 l0 -79 l-28 0 l0 10 l-15 0 l0 -69 q-2 -12 10 -10 q15 -6 27 42 l2 0 q-6 -32 6 -38 q3 -2 2 -5 q-10 -29 -39 -26 q-37 0 -35 26 l0 99 l42 0 l0 41 l-42 0 l0 18 l43 0 l8 13 ZM110 212 l0 -21 l19 0 l0 -19 l-20 0 l0 -33 l22 0 l0 -18 l-23 0 l0 -34 l19 0 l0 -19 l-19 0 l0 -62 q23 -8 102 -6 q4 0 4 0 q0 -1 -3 -3 q-10 -8 -6 -19 q2 -5 1 -6 q-1 -1 -6 -1 q-63 -2 -86 9 q-24 8 -43 43 q-3 -19 -27 -51 l-2 1 q13 35 10 123 l23 0 q1 -39 -2 -59 q4 -6 8 -11 l0 95 l-37 0 l0 18 l36 0 l0 33 l-28 0 l0 19 l28 0 l0 21 l30 0 Z" /><glyph glyph-name="" unicode="&#x8d8a;" d="M161 212 l22 0 l0 -29 q0 -5 0 -12 l29 0 l0 -17 l-29 0 q0 -32 0 -49 l1 0 q5 21 4 36 l20 0 q-4 -54 -23 -84 q0 -2 1 -6 q0 -2 0 -2 q4 -21 15 23 l3 0 q-3 -25 4 -28 q3 -1 2 -6 q-5 -25 -18 -29 q-13 -3 -22 18 q0 2 -1 5 q-1 4 -2 5 q-13 -12 -30 -21 l-1 2 q13 10 28 37 q0 3 -1 8 q0 6 -1 8 q-15 -27 -37 -49 q-2 11 -9 27 q2 1 9 4 l0 130 l23 0 l0 -12 l13 0 q0 8 0 12 l0 29 ZM186 206 q17 -4 25 -14 q5 -10 0 -15 q-7 -7 -14 -1 q-2 2 -4 10 q-3 11 -8 18 l1 2 ZM102 213 l0 -23 l17 0 l0 -17 l-17 0 l0 -33 l18 0 l0 -18 l-19 0 l0 -34 l16 0 l0 -19 l-16 0 l0 -62 q22 -9 107 -7 q3 0 3 0 q0 -2 -3 -4 q-7 -8 -5 -17 q2 -5 1 -6 q-1 -1 -6 -1 q-70 0 -93 9 q-25 9 -43 41 q-7 -21 -22 -44 l-2 1 q9 22 8 121 l22 0 q0 -45 -4 -66 q5 -6 11 -12 l0 100 l-34 0 l0 18 l33 0 l0 33 l-29 0 l0 17 l29 0 l0 23 l28 0 ZM162 78 q0 1 0 8 q-1 39 -1 68 l-13 0 l0 -87 q1 1 3 2 q9 6 11 9 Z" /><glyph glyph-name="" unicode="&#x8fc7;" d="M194 212 l0 -32 l22 0 l0 -17 l-22 0 l0 -122 q1 -25 -37 -25 q-7 -1 -6 6 q1 15 -23 19 l0 3 q44 -3 38 6 l0 113 l-63 0 l0 17 l63 0 l0 32 l28 0 ZM111 150 q35 -21 39 -45 q2 -14 -8 -20 q-11 -3 -17 9 q-1 2 -2 11 q-5 26 -14 43 l2 2 ZM54 207 q36 -13 41 -32 q3 -13 -6 -20 q-12 -5 -19 5 q-2 3 -4 13 q-5 21 -14 32 l2 2 ZM76 141 l30 -8 l-9 -13 l0 -94 q16 -19 38 -24 q20 -4 80 -1 q4 1 1 -1 q-9 -7 -6 -24 q1 -5 -5 -4 q-53 -2 -73 5 q-18 5 -36 32 q-10 14 -18 0 q-2 -3 -7 -9 q-9 -13 -13 -21 q-1 2 -5 11 q-7 15 -9 20 q1 1 3 2 q14 8 22 11 l0 88 l-25 0 l0 17 l24 0 l8 13 Z" /><glyph glyph-name="" unicode="&#x8fdb;" d="M120 212 l27 0 l0 -30 l19 0 l0 30 l27 0 l0 -30 l19 0 l0 -17 l-19 0 l0 -51 l18 0 l0 -17 l-18 0 l0 -88 l-27 0 l0 88 l-19 0 q0 -54 -43 -87 l-2 2 q17 30 18 85 l-26 0 l0 17 l26 0 l0 51 l-22 0 l0 17 l22 0 l0 30 ZM51 212 q36 -12 39 -32 q3 -13 -7 -21 q-11 -7 -17 4 q-2 3 -4 13 q-4 21 -13 34 l2 2 ZM67 145 l30 -11 l-7 -11 l0 -106 q15 -25 118 -16 q2 0 2 -1 q1 0 -1 -1 q-9 -7 -9 -22 q1 -6 -3 -5 q-64 -2 -80 4 q-18 4 -33 28 q-8 14 -18 0 q-3 -4 -10 -13 q-6 -9 -11 -15 q-2 7 -8 30 q2 1 5 4 q11 7 18 11 l0 95 l-22 0 l0 18 l22 0 l7 11 ZM166 165 l-19 0 l0 -51 l19 0 l0 51 Z" /><glyph glyph-name="" unicode="&#x8fea;" d="M148 211 l25 0 l0 -35 l13 0 l6 10 l27 -8 l-6 -11 l0 -147 l-27 0 l0 15 l-53 0 l0 -15 l-26 0 l0 167 l26 0 l0 -11 l15 0 l0 35 ZM148 160 l-15 0 l0 -46 l15 0 l0 46 ZM186 160 l-13 0 l0 -46 l13 0 l0 46 ZM133 97 l0 -46 l15 0 l0 46 l-15 0 ZM186 97 l-13 0 l0 -46 l13 0 l0 46 ZM51 212 q33 -5 40 -25 q4 -12 -6 -19 q-11 -6 -17 4 q-2 3 -4 10 q-5 17 -15 28 l2 2 ZM70 158 l30 -9 l-9 -13 l0 -116 q15 -16 41 -20 q26 -3 86 0 q2 1 3 0 q0 -1 -2 -2 q-9 -5 -10 -19 q0 -8 -5 -6 q-61 -3 -81 3 q-22 6 -34 27 q-4 7 -8 7 q-4 0 -8 -7 q-1 -1 -2 -3 q-7 -11 -13 -24 q-7 14 -13 27 q6 5 13 10 q3 3 5 5 l0 109 l-18 0 l0 19 l18 0 l7 12 Z" /><glyph glyph-name="" unicode="&#x9177;" d="M166 212 l23 0 l0 -32 l22 0 l0 -17 l-22 0 l0 -45 l24 0 l0 -17 l-76 0 l0 17 l29 0 l0 45 l-8 0 q-3 -20 -21 -43 l-2 1 q4 26 3 71 l24 0 q0 -5 -1 -10 q0 -1 0 -2 l5 0 l0 32 ZM192 85 l23 -6 l-5 -9 l0 -98 l-24 0 l0 20 l-22 0 l0 -21 l-24 0 l0 113 l24 0 l0 -10 l22 0 l6 11 ZM164 57 l0 -49 l22 0 l0 49 l-22 0 ZM110 36 l-46 0 l0 -28 l46 0 l0 28 ZM90 189 l-4 0 l0 -38 l4 0 l0 38 ZM110 82 l0 52 l-4 0 l0 -49 q-1 -3 3 -3 l1 0 ZM110 53 l0 13 l-9 0 q-12 -1 -11 12 l0 56 l-4 0 q1 -53 -20 -73 l-1 1 q6 10 5 72 l-6 0 l0 -81 l46 0 ZM64 -8 l0 -21 l-21 0 l0 187 l21 0 l0 -7 l6 0 l0 38 l-30 0 l0 17 l93 0 l0 -17 l-27 0 l0 -38 l3 0 l7 10 l21 -9 l-6 -9 l0 -172 l-21 0 l0 21 l-46 0 Z" /><glyph glyph-name="" unicode="&#x91cc;" d="M56 211 l30 0 l0 -12 l83 0 l7 12 l30 -9 l-7 -8 l0 -125 l-30 0 l0 11 l-27 0 l0 -33 l58 0 l0 -18 l-58 0 l0 -35 l69 0 l0 -17 l-170 0 l0 17 l72 0 l0 35 l-59 0 l0 18 l59 0 l0 33 l-27 0 l0 -10 l-30 0 l0 141 ZM113 181 l-27 0 l0 -33 l27 0 l0 33 ZM169 181 l-27 0 l0 -33 l27 0 l0 33 ZM113 131 l-27 0 l0 -34 l27 0 l0 34 ZM169 131 l-27 0 l0 -34 l27 0 l0 34 Z" /><glyph glyph-name="" unicode="&#x91d1;" d="M138 211 q-1 -2 -2 -5 q-1 -2 -2 -5 q33 -31 81 -42 q4 -1 0 -5 q-15 -10 -8 -26 q1 -2 0 -3 q-1 -2 -3 -1 q-8 3 -13 6 l0 -13 l-48 0 l0 -32 l57 0 l0 -18 l-57 0 l0 -64 q11 15 23 51 l35 0 q-13 -37 -58 -56 l0 -8 l65 0 l0 -18 l-161 0 l0 18 l67 0 l0 77 l-58 0 l0 18 l58 0 l0 32 l-49 0 l0 14 q-8 -5 -23 -11 l-1 3 q42 36 60 88 l37 0 ZM63 58 q39 -18 42 -40 q1 -13 -10 -17 q-12 -2 -16 9 q-4 25 -18 45 l2 3 ZM181 135 q-36 20 -52 56 q-20 -35 -56 -56 l108 0 Z" /><glyph glyph-name="" unicode="&#x94f8;" d="M150 212 l30 0 q-1 -6 -1 -20 l33 0 l0 -17 l-35 0 q-1 -10 -3 -17 l32 0 l0 -18 l-35 0 q-2 -10 -5 -16 l48 0 l0 -18 l-54 0 q-5 -12 -17 -28 l26 0 l0 17 l29 0 l0 -17 l15 0 l0 -18 l-15 0 l0 -66 q3 -23 -39 -24 q-6 -2 -6 5 q0 15 -25 18 l0 3 q48 -4 41 4 l0 60 l-35 0 l0 8 q-14 -14 -32 -23 l-1 2 q23 26 34 59 l-23 0 l0 18 l28 0 q2 4 4 14 q0 1 0 2 l-21 0 l0 18 l23 0 q0 2 1 5 q1 7 1 12 l-32 0 l0 17 l33 0 q0 4 1 11 q0 6 0 9 ZM129 53 q31 -12 30 -34 q0 -11 -11 -13 q-12 -1 -13 10 q-1 25 -7 35 l1 2 ZM58 212 l31 0 q-5 -20 -8 -29 l26 0 l0 -18 l-33 0 q-10 -17 -33 -39 l-2 1 q18 50 19 85 ZM49 132 l57 0 l0 -17 l-14 0 l0 -30 l15 0 l0 -17 l-15 0 l0 -41 q8 5 25 18 l2 -2 q-17 -41 -54 -68 q-6 25 -9 35 q1 0 3 1 q5 2 6 3 l0 54 l-22 0 l0 17 l22 0 l0 30 l-16 0 l0 17 Z" /><glyph glyph-name="" unicode="&#x9500;" d="M114 209 q31 -19 32 -43 q0 -14 -12 -16 q-12 0 -13 14 q1 20 -10 43 l3 2 ZM181 115 l-39 0 l0 -19 l39 0 l0 19 ZM181 78 l-39 0 l0 -19 l39 0 l0 19 ZM115 141 l27 0 l0 -7 l6 0 l0 78 l30 0 l0 -51 q8 22 11 47 l28 -4 q-15 -42 -39 -59 l0 -12 l4 0 l6 12 l27 -10 l-7 -9 l0 -132 q3 -24 -36 -24 q-3 0 -4 3 q-2 17 -21 19 l0 3 q38 -4 34 5 l0 40 l-39 0 l0 -68 l-27 0 l0 66 q-16 -41 -49 -65 q-2 16 -9 33 q7 3 10 5 l0 53 l-27 0 l0 18 l27 0 l0 34 l-20 0 l0 13 q-2 -2 -6 -4 l-2 2 q27 48 28 85 l32 0 q-3 -14 -9 -31 q-1 -1 -1 -2 l26 0 l0 -17 l-35 0 q-7 -12 -26 -28 l56 0 l0 -18 l-16 0 l0 -34 l17 0 l0 -18 l-17 0 l0 -37 q3 3 11 9 q7 6 10 8 l0 97 Z" /><glyph glyph-name="" unicode="&#x963f;" d="M117 164 l24 0 l0 -9 l7 0 l4 9 l28 -6 l-7 -11 l0 -130 l-24 0 l0 12 l-8 0 l0 -12 l-24 0 l0 147 ZM149 138 l-8 0 l0 -92 l8 0 l0 92 ZM216 203 l0 -18 l-9 0 l0 -188 q2 -28 -38 -26 q-7 0 -6 4 q0 15 -25 20 l0 4 q51 -5 43 3 l0 183 l-64 0 l0 14 l-5 -7 q-7 -36 -19 -55 q17 -7 16 -30 l0 -80 q2 -18 -19 -21 q-4 -1 -5 0 q-1 0 -1 4 q0 12 -8 15 l0 -53 l-26 0 l0 236 l26 0 l0 -10 l10 0 l7 13 l28 -6 l-1 -2 l96 0 ZM86 180 l-10 0 l0 -149 q12 -1 11 5 l0 71 q0 15 -8 26 q3 15 6 39 q1 5 1 8 Z" /><glyph glyph-name="" unicode="&#x96c4;" d="M99 212 q0 -21 -4 -49 l18 0 l0 -17 l-21 0 q-10 -56 -48 -97 l-2 2 q18 44 23 95 l-19 0 l0 17 l20 0 q2 19 2 49 l31 0 ZM126 212 l32 0 q-3 -25 -15 -49 l74 0 l0 -18 l-22 0 l0 -33 l18 0 l0 -18 l-18 0 l0 -33 l17 0 l0 -18 l-17 0 l0 -42 l20 0 l0 -16 l-63 0 l0 -14 l-27 0 l0 163 q-10 -13 -25 -26 l-3 2 q25 41 29 102 ZM167 211 q29 -6 31 -26 q1 -13 -9 -18 q-12 -3 -15 9 q-1 2 -1 8 q-2 16 -8 25 l2 2 ZM109 102 q-13 -49 -38 -81 q12 2 25 5 q0 5 -4 23 l3 2 q29 -27 25 -47 q0 -12 -11 -15 q-12 0 -12 11 q1 1 1 11 q-14 -11 -44 -22 q-1 2 -2 8 q-1 4 -5 22 q4 0 7 0 q20 42 27 83 l28 0 ZM152 145 l0 -33 l17 0 l0 33 l-17 0 ZM152 94 l0 -33 l17 0 l0 33 l-17 0 ZM169 43 l-17 0 l0 -42 l17 0 l0 42 Z" /><glyph glyph-name="" unicode="&#x96ea;" d="M206 208 l0 -18 l-62 0 l0 -20 l39 0 l8 12 l26 -7 l-7 -10 q-3 -15 -27 -29 q7 -9 3 -15 q-5 -9 -15 -4 q-2 1 -7 6 q-9 10 -16 13 l0 3 q23 5 31 0 q3 9 3 14 l-38 0 l0 -76 l-29 0 l0 76 l-44 0 q1 -10 -1 -14 q-6 -18 -19 -16 q-12 4 -9 21 q1 2 4 8 q11 17 11 30 l3 0 q0 -1 1 -2 q3 -8 5 -10 l49 0 l0 20 l-61 0 l0 18 l152 0 ZM106 134 q6 -5 3 -14 q-4 -10 -15 -4 q-2 1 -7 6 q-10 10 -17 12 l1 2 q23 6 35 -2 ZM178 80 l29 -8 l-7 -11 l0 -90 l-29 0 l0 10 l-115 0 l0 17 l115 0 l0 18 l-110 0 l0 17 l110 0 l0 18 l-114 0 l0 17 l113 0 l8 12 ZM103 98 q8 -7 2 -17 q-8 -9 -19 0 q-14 17 -26 23 l1 1 q30 6 42 -7 ZM193 102 q7 -9 2 -17 q-7 -7 -17 -1 q-2 2 -6 5 q-14 12 -24 16 l1 2 q32 9 44 -5 Z" /><glyph glyph-name="" unicode="&#x9cb2;" d="M60 211 l30 0 q-1 -4 -3 -11 q-1 -6 -3 -11 l11 0 l7 9 l26 -12 l-10 -9 q-13 -22 -27 -35 l9 0 l6 11 l21 -7 l-5 -9 l0 -110 l-22 0 l0 9 l-30 0 l0 -9 l-22 0 l0 108 q0 0 -1 -1 q-3 -2 -5 -4 l-3 2 q18 40 21 79 ZM128 106 l23 0 l0 -40 l17 0 l0 -18 l-17 0 l0 -40 q4 2 19 8 l0 90 l24 0 l0 -49 q1 5 4 20 q1 8 2 14 l18 0 q0 -32 -24 -54 l0 -33 q0 -3 2 -3 q3 0 5 3 q6 11 9 32 l3 0 q-3 -26 5 -32 q1 -2 1 -3 q-4 -30 -25 -29 q-27 -3 -24 22 l0 14 q-17 -28 -41 -38 q-1 9 -8 30 q1 -1 7 0 l0 9 q-33 -29 -72 -39 q-1 3 -5 13 q-6 16 -8 19 q44 -1 85 12 l0 92 ZM192 215 l23 -10 l-7 -10 l0 -81 l-23 0 l0 6 l-33 0 l0 -5 l-23 0 l0 96 l23 0 l0 -8 l34 0 l6 12 ZM152 187 l0 -18 l33 0 l0 18 l-33 0 ZM185 154 l-33 0 l0 -17 l33 0 l0 17 ZM89 171 l-12 0 q-4 -9 -16 -23 l9 0 l0 -6 l9 0 q3 9 9 25 q-1 -1 1 4 ZM105 81 l-9 0 l0 -25 l9 0 l0 25 ZM100 123 l-7 0 l0 -25 l7 0 l0 25 ZM70 55 l7 0 l0 25 l-7 0 l0 -25 ZM70 98 l7 0 l0 25 l-7 0 l0 -25 Z" /><glyph glyph-name="" unicode="&#x9e4f;" d="M78 205 l18 -6 l-5 -8 l0 -197 q0 -13 -18 -16 q-3 -2 -4 4 q-1 9 -10 12 l0 3 q17 -2 15 4 l0 65 l-6 0 l0 -7 q2 -56 -26 -85 l-1 1 q9 28 9 74 l0 155 l18 0 l0 -8 l4 0 l6 9 ZM68 180 l0 -45 l6 0 l0 45 l-6 0 ZM115 181 l0 -46 l7 0 l0 46 l-7 0 ZM122 120 l-7 0 l0 -39 l7 0 l0 39 ZM140 -6 q2 -14 -16 -18 q-6 -2 -7 3 q0 10 -11 13 l0 3 q17 -2 16 6 l0 65 l-7 0 l0 -14 q1 -48 -24 -78 l-2 2 q9 19 9 87 l0 142 l17 0 l0 -9 l5 0 l5 9 l20 -5 l-5 -8 l0 -130 l0 -68 ZM163 212 l27 0 q-6 -17 -20 -27 l0 -2 l13 0 l5 11 l24 -5 l-5 -9 l0 -72 q-1 -15 -16 -17 q-8 -2 -7 4 q0 8 -12 12 l0 3 q16 -2 13 4 l0 11 q-7 -5 -10 4 q0 2 -1 5 q0 11 -4 20 l0 -79 l16 0 l6 10 l25 -7 l-5 -9 l0 -69 q2 -26 -29 -29 q-8 -2 -7 4 q0 14 -20 17 l0 4 q36 -6 30 7 l0 57 l-17 0 l-5 -8 l-23 8 l6 7 l0 126 l15 0 q0 2 0 8 q1 7 1 11 ZM142 36 l41 0 l0 -17 l-41 0 l0 17 ZM68 81 l6 0 l0 39 l-6 0 l0 -39 ZM185 141 l0 26 l-15 0 l0 -11 l2 1 q11 -11 13 -16 Z" /><glyph glyph-name="" unicode="&#x9ed1;" d="M173 213 l31 -9 l-10 -12 l0 -89 l-28 0 l0 10 l-27 0 l0 -25 l54 0 l0 -16 l-54 0 l0 -20 l67 0 l0 -16 l-164 0 l0 16 l68 0 l0 20 l-58 0 l0 16 l58 0 l0 25 l-25 0 l0 -10 l-29 0 l0 106 l29 0 l0 -7 l80 0 l8 11 ZM85 185 l0 -56 l25 0 l0 56 l-25 0 ZM139 185 l0 -42 q7 14 9 34 q6 -1 18 -1 l0 9 l-27 0 ZM88 178 q24 -16 20 -34 q-2 -9 -9 -9 q-8 1 -8 10 q0 3 0 8 q-1 15 -5 23 l2 2 ZM166 160 q-10 -17 -27 -28 l0 -3 l27 0 l0 31 ZM169 30 q31 -14 39 -38 q1 -13 -9 -19 q-11 -4 -15 8 q-1 2 -2 8 q-5 22 -15 40 l2 1 ZM63 29 l2 0 q14 -34 -3 -52 q-8 -9 -17 -5 q-8 5 -5 16 q2 5 9 13 q12 16 14 28 ZM131 28 q30 -18 31 -40 q-2 -12 -14 -14 q-10 -1 -11 12 q0 2 0 7 q-1 22 -8 33 l2 2 ZM89 26 q30 -19 30 -39 q-2 -12 -11 -15 q-10 -1 -13 9 q-1 4 -1 12 q0 18 -6 32 l1 1 Z" /><glyph glyph-name="" unicode="&#x9f0e;" d="M152 212 l24 -8 l-8 -12 l0 -101 l-25 0 l0 9 l-29 0 l0 -8 l-25 0 l0 118 l25 0 l0 -9 l29 0 l9 11 ZM50 193 l28 0 l0 -111 l16 0 l7 8 l27 -9 l-6 -7 l0 -103 l-28 0 l0 59 l-13 0 q4 -37 -41 -59 l-1 2 q18 22 17 57 l-15 0 l0 18 l53 0 l0 16 l-19 0 l-7 -8 l-25 10 l7 10 l0 117 ZM143 184 l-29 0 l0 -11 l29 0 l0 11 ZM143 156 l-29 0 l0 -12 l29 0 l0 12 ZM114 128 l0 -12 l29 0 l0 12 l-29 0 ZM206 193 l0 -137 l-28 0 l0 8 l-15 0 l0 -17 l17 0 l7 9 l26 -9 l-6 -7 l0 -70 l-28 0 l0 60 l-16 0 l0 -59 l-28 0 l0 117 l28 0 l0 -7 l15 0 l0 112 l28 0 Z" /><glyph glyph-name="" unicode="&#x9f20;" d="M106 213 q8 -9 23 -18 q-19 -13 -47 -14 l0 -15 l41 0 l0 -15 l-41 0 l0 -16 l89 0 l0 16 l-33 0 l0 15 l33 0 l0 14 l-38 0 l0 16 l37 0 l9 12 l29 -8 l-10 -12 l0 -80 l-27 0 l0 11 l-89 0 l0 -11 l-28 0 l0 93 l28 0 l0 -11 q15 12 24 23 ZM52 102 l26 0 l0 -92 q7 2 23 9 q3 1 5 2 l2 -1 q-20 -28 -58 -49 q-3 15 -7 29 q3 0 7 1 q1 0 2 0 l0 101 ZM165 102 l26 0 l0 -97 q1 -8 17 21 l2 -1 q-8 -23 -1 -27 q3 -2 2 -4 q-6 -22 -27 -21 q-19 0 -19 27 l0 102 ZM82 90 q21 -2 25 -11 q3 -8 -3 -13 q-6 -4 -11 3 q0 1 -1 3 q-3 8 -11 16 l1 2 ZM82 59 q22 -4 24 -17 q1 -9 -4 -12 q-6 -3 -10 4 q-1 1 -1 4 q-3 10 -10 19 l1 2 ZM139 90 q17 -3 22 -12 q4 -9 -2 -13 q-8 -4 -12 4 q0 0 0 1 q-2 9 -9 18 l1 2 ZM138 57 q21 -4 23 -17 q0 -7 -5 -11 q-6 -2 -9 4 q-1 1 -2 5 q-3 10 -8 17 l1 2 ZM110 102 l26 0 l0 -95 q15 5 23 10 l2 -2 q-15 -23 -52 -44 q-2 15 -8 28 q1 0 5 1 q3 0 4 0 l0 102 Z" /></font>
</defs>
</svg>
