<?xml version="1.0" encoding="UTF-8"?>
<svg xmlns="http://www.w3.org/2000/svg" xmlns:xlink="http://www.w3.org/1999/xlink" width="512" height="512" viewBox="0 0 44 60" version="1.1"><!-- Generator: Sketch 51.3 (57544) - http://www.bohemiancoding.com/sketch --><title>047 - SVG File</title><desc>Created with Sketch.</desc><defs/><g id="Page-1" stroke="none" stroke-width="1" fill="none" fill-rule="evenodd"><g id="047---SVG-File" fill="#000000" fill-rule="nonzero"><path d="M43.934,11.673 C43.8951616,11.5526076 43.8306802,11.442068 43.745,11.349 C43.726,11.327 43.712,11.302 43.691,11.282 C43.685,11.276 43.682,11.268 43.676,11.263 L31.676,0.263 C31.5962842,0.191418747 31.5054241,0.133322331 31.407,0.091 C31.384,0.08 31.359,0.076 31.334,0.067 C31.243826,0.0350353956 31.1495316,0.0161765141 31.054,0.011 C31.035,0.01 31.019,0 31,0 L4,0 C1.790861,-1.3527075e-16 0,1.790861 0,4 L0,56 C0,58.209139 1.790861,60 4,60 L40,60 C42.209139,60 44,58.209139 44,56 L44,12 C44,11.976 43.988,11.957 43.987,11.934 C43.9809433,11.8450404 43.9631214,11.757276 43.934,11.673 Z M31,15 L31,13 L33,13 L33,15 L31,15 Z M34,11 L32,11 L32,3.273 L40.43,11 L34,11 Z M4,2 L30,2 L30,11 C29.4477153,11 29,11.4477153 29,12 L29,14 C28.4477153,14 28,14.4477153 28,15 C28,15.5522847 28.4477153,16 29,16 C29,16.5522847 29.4477153,17 30,17 L31,17 C31,17.5522847 31.4477153,18 32,18 C32.5522847,18 33,17.5522847 33,17 L34,17 C34.5522847,17 35,16.5522847 35,16 L35,13 L42,13 L42,38 L2,38 L2,4 C2,2.8954305 2.8954305,2 4,2 Z M40,58 L4,58 C2.8954305,58 2,57.1045695 2,56 L2,40 L42,40 L42,56 C42,57.1045695 41.1045695,58 40,58 Z" id="Shape"/><path d="M6,7 L9,7 C9.55228475,7 10,6.55228475 10,6 C10,5.44771525 9.55228475,5 9,5 L6,5 C5.44771525,5 5,5.44771525 5,6 C5,6.55228475 5.44771525,7 6,7 Z" id="Shape"/><path d="M13,7 L19,7 C19.5522847,7 20,6.55228475 20,6 C20,5.44771525 19.5522847,5 19,5 L13,5 C12.4477153,5 12,5.44771525 12,6 C12,6.55228475 12.4477153,7 13,7 Z" id="Shape"/><path d="M9,44 L10,44 C11.1045695,44 12,44.8954305 12,46 C12,46.5522847 12.4477153,47 13,47 C13.5522847,47 14,46.5522847 14,46 C14,43.790861 12.209139,42 10,42 L9,42 C6.790861,42 5,43.790861 5,46 C5,48.209139 6.790861,50 9,50 L10,50 C11.1045695,50 12,50.8954305 12,52 C12,53.1045695 11.1045695,54 10,54 L9,54 C7.8954305,54 7,53.1045695 7,52 C7,51.4477153 6.55228475,51 6,51 C5.44771525,51 5,51.4477153 5,52 C5,54.209139 6.790861,56 9,56 L10,56 C12.209139,56 14,54.209139 14,52 C14,49.790861 12.209139,48 10,48 L9,48 C7.8954305,48 7,47.1045695 7,46 C7,44.8954305 7.8954305,44 9,44 Z" id="Shape"/><path d="M29,34 L29,35 C29,35.5522847 29.4477153,36 30,36 L34,36 C34.5522847,36 35,35.5522847 35,35 L35,31 C35,30.4477153 34.5522847,30 34,30 L33,30 C33,29.4477153 32.5522847,29 32,29 C31.4477153,29 31,29.4477153 31,30 L30,30 C29.4477153,30 29,30.4477153 29,31 L29,32 C28.4477153,32 28,32.4477153 28,33 C28,33.5522847 28.4477153,34 29,34 Z M31,32 L33,32 L33,34 L31,34 L31,32 Z" id="Shape"/><path d="M20.091,32 L18.818,32 C18.2657153,32 17.818,32.4477153 17.818,33 C17.818,33.5522847 18.2657153,34 18.818,34 L20.091,34 C20.6432847,34 21.091,33.5522847 21.091,33 C21.091,32.4477153 20.6432847,32 20.091,32 Z" id="Shape"/><path d="M25.182,32 L23.909,32 C23.3567153,32 22.909,32.4477153 22.909,33 C22.909,33.5522847 23.3567153,34 23.909,34 L25.182,34 C25.7342847,34 26.182,33.5522847 26.182,33 C26.182,32.4477153 25.7342847,32 25.182,32 Z" id="Shape"/><path d="M15,32 L15,31 C15,30.4477153 14.5522847,30 14,30 L13,30 C13,29.4477153 12.5522847,29 12,29 C11.4477153,29 11,29.4477153 11,30 L10,30 C9.44771525,30 9,30.4477153 9,31 L9,35 C9,35.5522847 9.44771525,36 10,36 L14,36 C14.5522847,36 15,35.5522847 15,35 L15,34 C15.5522847,34 16,33.5522847 16,33 C16,32.4477153 15.5522847,32 15,32 Z M13,34 L11,34 L11,32 L13,32 L13,34 Z" id="Shape"/><path d="M23.909,16 L25.182,16 C25.7342847,16 26.182,15.5522847 26.182,15 C26.182,14.4477153 25.7342847,14 25.182,14 L23.909,14 C23.3567153,14 22.909,14.4477153 22.909,15 C22.909,15.5522847 23.3567153,16 23.909,16 Z" id="Shape"/><path d="M17.818,15 C17.818,15.5522847 18.2657153,16 18.818,16 L20.091,16 C20.6432847,16 21.091,15.5522847 21.091,15 C21.091,14.4477153 20.6432847,14 20.091,14 L18.818,14 C18.2657153,14 17.818,14.4477153 17.818,15 Z" id="Shape"/><path d="M12,24.272 C11.4477153,24.272 11,24.7197153 11,25.272 L11,26.454 C11,27.0062847 11.4477153,27.454 12,27.454 C12.5522847,27.454 13,27.0062847 13,26.454 L13,25.272 C13,24.7197153 12.5522847,24.272 12,24.272 Z" id="Shape"/><path d="M13,20.545 C13,19.9927153 12.5522847,19.545 12,19.545 C11.4477153,19.545 11,19.9927153 11,20.545 L11,21.727 C11,22.2792847 11.4477153,22.727 12,22.727 C12.5522847,22.727 13,22.2792847 13,21.727 L13,20.545 Z" id="Shape"/><path d="M32,22.727 C32.5522847,22.727 33,22.2792847 33,21.727 L33,20.545 C33,19.9927153 32.5522847,19.545 32,19.545 C31.4477153,19.545 31,19.9927153 31,20.545 L31,21.727 C31,22.2792847 31.4477153,22.727 32,22.727 Z" id="Shape"/><path d="M32,27.454 C32.5522847,27.454 33,27.0062847 33,26.454 L33,25.272 C33,24.7197153 32.5522847,24.272 32,24.272 C31.4477153,24.272 31,24.7197153 31,25.272 L31,26.454 C31,26.7192165 31.1053568,26.9735704 31.2928932,27.1611068 C31.4804296,27.3486432 31.7347835,27.454 32,27.454 Z" id="Shape"/><path d="M14,11 L10,11 C9.44771525,11 9,11.4477153 9,12 L9,16 C9,16.5522847 9.44771525,17 10,17 L11,17 C11,17.5522847 11.4477153,18 12,18 C12.5522847,18 13,17.5522847 13,17 L14,17 C14.5522847,17 15,16.5522847 15,16 C15.5522847,16 16,15.5522847 16,15 C16,14.4477153 15.5522847,14 15,14 L15,12 C15,11.4477153 14.5522847,11 14,11 Z M11,15 L11,13 L13,13 L13,15 L11,15 Z" id="Shape"/><path d="M21,20.142 C19.5997013,20.5061725 18.5061725,21.5997013 18.142,23 L17,23 C16.4477153,23 16,23.4477153 16,24 C16,24.5522847 16.4477153,25 17,25 L18.142,25 C18.5061725,26.4002987 19.5997013,27.4938275 21,27.858 L21,29 C21,29.5522847 21.4477153,30 22,30 C22.5522847,30 23,29.5522847 23,29 L23,27.858 C24.4002987,27.4938275 25.4938275,26.4002987 25.858,25 L27,25 C27.5522847,25 28,24.5522847 28,24 C28,23.4477153 27.5522847,23 27,23 L25.858,23 C25.4938275,21.5997013 24.4002987,20.5061725 23,20.142 L23,19 C23,18.4477153 22.5522847,18 22,18 C21.4477153,18 21,18.4477153 21,19 L21,20.142 Z M24,24 C24,25.1045695 23.1045695,26 22,26 C20.8954305,26 20,25.1045695 20,24 C20,22.8954305 20.8954305,22 22,22 C23.1045695,22 24,22.8954305 24,24 Z" id="Shape"/><path d="M25.316,42.052 C24.7924646,41.8779069 24.2268468,42.1607159 24.052,42.684 L21,51.838 L17.948,42.684 C17.773478,42.1593295 17.2066705,41.8754781 16.682,42.05 C16.1573295,42.224522 15.873478,42.7913295 16.048,43.316 L20.048,55.316 C20.1828836,55.7263745 20.5660268,56.0037501 20.998,56.0037501 C21.4299732,56.0037501 21.8131164,55.7263745 21.948,55.316 L25.948,43.316 C26.1220931,42.7924646 25.8392841,42.2268468 25.316,42.052 Z" id="Shape"/><path d="M38,50 L34,50 C33.4477153,50 33,50.4477153 33,51 C33,51.5522847 33.4477153,52 34,52 L35,52 C35,53.1045695 34.1045695,54 33,54 L32,54 C30.3431458,54 29,52.6568542 29,51 L29,47 C29,45.3431458 30.3431458,44 32,44 C33.6568542,44 35,45.3431458 35,47 C35,47.5522847 35.4477153,48 36,48 C36.5522847,48 37,47.5522847 37,47 C37,44.2385763 34.7614237,42 32,42 C29.2385763,42 27,44.2385763 27,47 L27,51 C27.0033061,53.7600532 29.2399468,55.9966939 32,56 L33,56 C35.209139,56 37,54.209139 37,52 L38,52 C38.5522847,52 39,51.5522847 39,51 C39,50.4477153 38.5522847,50 38,50 Z" id="Shape"/></g></g></svg>
